<?xml version="1.0" encoding="UTF-8"?>
<svg width="375px" height="221px" viewBox="0 0 375 221" version="1.1" xmlns="http://www.w3.org/2000/svg" xmlns:xlink="http://www.w3.org/1999/xlink">
    <!-- Generator: Sketch 53.2 (72643) - https://sketchapp.com -->
    <title>Group</title>
    <desc>Created with Sketch.</desc>
    <g id="Page-1" stroke="none" stroke-width="1" fill="none" fill-rule="evenodd" opacity="0.3">
        <g id="moderate" transform="translate(0.000000, -591.000000)" fill-rule="nonzero">
            <g id="BG-illustration" transform="translate(-420.000000, -99.000000)">
                <g id="Group" transform="translate(334.000000, 690.000000)">
                    <rect id="Rectangle" fill="#942921" x="423.898969" y="187.854282" width="24.7117526" height="68.6370914"></rect>
                    <polygon id="Path" fill="#FCD089" points="453.539381 256.491373 448.576495 256.491373 448.576495 187.854282 453.539381 190.966377"></polygon>
                    <g transform="translate(330.973196, 74.895481)" id="Path">
                        <polygon fill="#FCD089" points="60.2391753 0.239391948 60.2391753 181.595892 97.854433 181.595892 97.854433 10.2938538"></polygon>
                        <g>
                            <polygon fill="#F5A16C" points="0.136907216 22.1608546 0.479175258 181.595892 60.2391753 181.595892 60.2391753 0.239391948"></polygon>
                            <polygon fill="#F5A16C" points="60.2391753 0.239391948 0.136907216 22.1608546 0.308041237 97.2615286 60.2391753 43.5351357"></polygon>
                            <polygon fill="#CC7A5F" points="0.308041237 97.2615286 0.479175258 181.595892 60.2391753 181.595892 60.2391753 43.5351357"></polygon>
                            <g transform="translate(2.395876, 7.181758)" fill="#FCD089">
                                <polygon points="7.22185567 49.5883321 0.171134021 51.5718654 0.171134021 54.1367791 7.25608247 52.1874447"></polygon>
                                <polygon points="13.2115464 47.9125885 9.9942268 48.8359574 9.9942268 51.43507 13.2457732 50.5458999"></polygon>
                                <polygon points="18.4140206 46.4762368 18.4140206 49.1437471 28.476701 46.3736402 28.476701 43.6719311"></polygon>
                                <polygon points="43.8787629 39.362876 40.182268 40.3888415 40.182268 43.1931472 43.8787629 42.1671817"></polygon>
                                <polygon points="45.7612371 38.8498933 45.7612371 41.654199 54.8313402 39.1576829 54.8313402 36.3191784"></polygon>
                                <polygon points="18.4140206 40.9360231 18.4140206 43.5693346 28.476701 40.6966312 28.476701 37.994922"></polygon>
                                <polygon points="43.8787629 33.5148727 40.182268 34.5750371 40.182268 37.3793428 43.8787629 36.3191784"></polygon>
                                <polygon points="45.7612371 32.9676911 45.7612371 35.7719968 54.8313402 33.1728842 54.8313402 30.3001809"></polygon>
                                <polygon points="13.2115464 42.4407725 9.96 43.3983403 9.9942268 45.9974529 13.2115464 45.0740839"></polygon>
                                <polygon points="7.22185567 44.1849138 0.136907216 46.2368448 0.136907216 48.8017586 7.22185567 46.7840264"></polygon>
                                <polygon points="7.22185567 38.7814956 0.136907216 40.9360231 0.136907216 43.466738 7.22185567 41.3464093"></polygon>
                                <polygon points="13.2115464 36.9689566 9.96 37.9265243 9.96 40.5598358 13.2115464 39.5680691"></polygon>
                                <polygon points="43.8787629 27.6326706 40.182268 28.7612326 40.182268 31.5655383 43.8787629 30.4369763"></polygon>
                                <polygon points="45.7612371 27.085489 45.7612371 29.8897947 54.8313402 27.1880855 54.8313402 24.3153822"></polygon>
                                <polygon points="18.4140206 35.3616106 18.4140206 38.0291209 28.476701 35.0196221 28.476701 32.317913"></polygon>
                                <polygon points="7.22185567 33.3438785 0.136907216 35.6010026 0.136907216 38.1317174 7.22185567 35.9429911"></polygon>
                                <polygon points="13.2115464 31.4629417 9.96 32.4889072 9.96 35.0880198 13.2115464 34.0962532"></polygon>
                                <polygon points="18.4140206 29.821397 18.4140206 32.4889072 28.476701 29.3426131 28.476701 26.6409039"></polygon>
                                <polygon points="45.7612371 21.2032868 45.7612371 24.0075925 54.8313402 21.2032868 54.8313402 18.3305835"></polygon>
                                <polygon points="7.18762887 27.9404602 0.102680412 30.265982 0.136907216 32.7966969 7.18762887 30.5395728"></polygon>
                                <polygon points="13.1773196 25.9569269 9.96 27.0512901 9.96 29.6504027 13.2115464 28.5902384"></polygon>
                                <polygon points="43.8787629 15.9024651 40.182268 17.1336237 40.182268 19.9037305 43.8787629 18.7067708"></polygon>
                                <polygon points="45.7612371 15.2868858 45.7612371 18.1253904 54.8313402 15.1842893 54.8313402 12.3115859"></polygon>
                                <polygon points="18.3797938 24.2811833 18.3797938 26.9144947 28.476701 23.665604 28.476701 20.9638949"></polygon>
                                <polygon points="7.18762887 22.5028431 0.102680412 24.9309615 0.102680412 27.4616763 7.18762887 25.1019557"></polygon>
                                <polygon points="13.1773196 20.485111 9.9257732 21.5794742 9.9257732 24.1785868 13.1773196 23.1184224"></polygon>
                                <polygon points="18.3797938 18.7067708 18.3797938 21.3742811 28.476701 17.988595 28.476701 15.2868858"></polygon>
                                <polygon points="43.8787629 10.0544618 40.182268 11.3198193 40.182268 14.0899261 43.8787629 12.8587675"></polygon>
                                <polygon points="45.7612371 9.40468367 45.7612371 12.2431882 54.8313402 9.19949058 54.8313402 6.3267872"></polygon>
                                <polygon points="18.3797938 13.1323583 18.3797938 15.7998686 28.4424742 12.3115859 28.4424742 9.60987677"></polygon>
                                <polygon points="43.8787629 4.17225967 40.182268 5.47181596 40.182268 8.27612163 43.8787629 6.97656534"></polygon>
                                <polygon points="45.7612371 3.52248152 45.7612371 6.3267872 54.8313402 3.18049302 54.8313402 0.307789648"></polygon>
                                <polygon points="7.18762887 17.0994249 0.102680412 19.5959409 0.102680412 22.1266558 7.18762887 19.6985374"></polygon>
                                <polygon points="13.1773196 14.9790962 9.9257732 16.1076582 9.9257732 18.7409697 13.1773196 17.6124076"></polygon>
                                <polygon points="43.9472165 138.710534 40.2507216 138.984125 40.2507216 141.754232 43.9472165 141.51484"></polygon>
                                <polygon points="45.7954639 138.573739 45.7954639 141.378045 54.8313402 140.762465 54.8313402 137.923961"></polygon>
                                <polygon points="7.39298969 136.043024 0.342268041 136.658604 0.342268041 139.189318 7.39298969 138.607938"></polygon>
                                <polygon points="13.3484536 135.530041 10.131134 135.803632 10.131134 138.402745 13.3826804 138.129154"></polygon>
                                <polygon points="18.5509278 135.085456 18.5509278 137.718768 36.348866 136.282416 36.348866 133.546508"></polygon>
                                <polygon points="43.9472165 132.89673 40.2507216 133.20452 40.2507216 135.974627 43.9472165 135.701036"></polygon>
                                <polygon points="45.7954639 132.725736 45.7954639 135.530041 54.8313402 134.811866 54.8313402 131.973361"></polygon>
                                <polygon points="7.39298969 130.673805 0.308041237 131.357782 0.342268041 133.888497 7.39298969 133.238719"></polygon>
                                <polygon points="13.3484536 130.058226 10.131134 130.400214 10.131134 132.965128 13.3484536 132.691537"></polygon>
                                <polygon points="18.5509278 129.579442 18.5509278 132.212753 36.348866 130.571208 36.348866 127.8353"></polygon>
                                <polygon points="43.9472165 127.082926 40.2507216 127.459113 40.2507216 130.195021 43.9472165 129.853032"></polygon>
                                <polygon points="45.7954639 126.911931 45.7954639 129.682038 54.8313402 128.861266 54.8313402 126.022761"></polygon>
                                <polygon points="7.35876289 125.270387 0.308041237 126.05696 0.308041237 128.587675 7.39298969 127.8353"></polygon>
                                <polygon points="13.3484536 124.620608 10.0969072 124.962597 10.131134 127.561709 13.3484536 127.219721"></polygon>
                                <polygon points="43.9129897 121.269121 40.2507216 121.679507 40.2507216 124.415415 43.9472165 124.039228"></polygon>
                                <polygon points="45.7954639 121.063928 45.7954639 123.834035 54.8313402 122.910666 54.8313402 120.072161"></polygon>
                                <polygon points="18.516701 124.039228 18.5509278 126.672539 36.348866 124.825802 36.348866 122.089894"></polygon>
                                <polygon points="7.35876289 119.901167 0.308041237 120.756138 0.308041237 123.286853 7.35876289 122.466081"></polygon>
                                <polygon points="13.3484536 119.148792 10.0969072 119.559179 10.0969072 122.158291 13.3484536 121.782104"></polygon>
                                <polygon points="18.516701 118.533213 18.516701 121.166525 36.348866 119.114594 36.348866 116.344487"></polygon>
                                <polygon points="43.9129897 115.421118 40.2507216 115.899902 40.2507216 118.63581 43.9129897 118.225424"></polygon>
                                <polygon points="45.7954639 115.215925 45.7954639 117.986032 54.8313402 116.960066 54.8313402 114.087363"></polygon>
                                <polygon points="7.35876289 114.497749 0.273814433 115.455317 0.308041237 117.986032 7.35876289 117.096861"></polygon>
                                <polygon points="13.3142268 113.711175 10.0969072 114.15576 10.0969072 116.720674 13.3484536 116.310288"></polygon>
                                <polygon points="43.9129897 109.607313 40.2507216 110.086097 40.2507216 112.856204 43.9129897 112.37742"></polygon>
                                <polygon points="45.7954639 109.367921 45.7954639 112.138028 54.8313402 111.009466 54.8313402 108.136763"></polygon>
                                <polygon points="18.516701 113.027198 18.516701 115.66051 36.348866 113.369187 36.348866 110.633279"></polygon>
                                <polygon points="13.3142268 108.239359 10.0969072 108.718143 10.0969072 111.317256 13.3142268 110.872671"></polygon>
                                <polygon points="7.35876289 109.128529 0.273814433 110.154495 0.273814433 112.68521 7.35876289 111.693443"></polygon>
                                <polygon points="43.9129897 103.75931 40.2164948 104.306492 40.2164948 107.076598 43.9129897 106.563616"></polygon>
                                <polygon points="45.7954639 103.519918 45.7954639 106.290025 54.8313402 105.024668 54.8313402 102.186163"></polygon>
                                <polygon points="18.516701 107.486985 18.516701 110.120296 36.348866 107.62378 36.348866 104.887872"></polygon>
                                <polygon points="13.3142268 102.767543 10.0626804 103.280526 10.0626804 105.879639 13.3142268 105.400855"></polygon>
                                <polygon points="7.32453608 103.725111 0.273814433 104.853673 0.273814433 107.384388 7.32453608 106.290025"></polygon>
                                <polygon points="18.516701 101.946771 18.516701 104.614281 36.348866 101.878373 36.348866 99.1424654"></polygon>
                                <polygon points="45.7954639 97.637716 45.7954639 100.442022 54.8313402 99.0740677 54.8313402 96.2013643"></polygon>
                                <polygon points="4.68907216 98.8004769 0.239587629 99.5528516 0.273814433 102.083566 4.68907216 101.331192"></polygon>
                                <polygon points="13.3142268 97.3299263 10.0626804 97.8771079 10.0626804 100.47622 13.3142268 99.9290389"></polygon>
                                <polygon points="45.7954639 91.7897127 45.7954639 94.5940183 54.8313402 93.089269 54.8313402 90.2507644"></polygon>
                                <polygon points="18.4824742 96.4407562 18.4824742 99.0740677 36.348866 96.1329666 36.3146392 93.3970586"></polygon>
                                <polygon points="4.68907216 93.4312575 0.239587629 94.217831 0.239587629 96.7827447 4.68907216 95.9961712"></polygon>
                                <polygon points="13.28 91.8581104 10.0626804 92.4394908 10.0626804 95.0386034 13.3142268 94.4572229"></polygon>
                                <polygon points="18.4824742 90.9005426 18.4824742 93.533854 36.3146392 90.3875598 36.3146392 87.6516518"></polygon>
                                <polygon points="45.7954639 85.9417094 45.7954639 88.746015 54.8313402 87.1386691 54.8313402 84.2659657"></polygon>
                                <polygon points="45.7612371 80.0595072 45.7612371 82.8638129 54.8313402 81.1538704 54.8313402 78.3153659"></polygon>
                                <polygon points="18.4824742 85.3603289 18.4824742 88.0278392 36.3146392 84.6421531 36.3146392 81.9062451"></polygon>
                                <polygon points="4.65484536 88.062038 0.239587629 88.9170093 0.239587629 91.4477242 4.65484536 90.6269518"></polygon>
                                <polygon points="13.28 86.3862944 10.0626804 87.0018737 10.0626804 89.6009863 13.28 88.985407"></polygon>
                                <polygon points="4.65484536 82.6928186 0.239587629 83.6161876 0.239587629 86.1469025 4.65484536 85.2577324"></polygon>
                                <polygon points="13.28 80.9144785 10.0284536 81.5642566 10.0284536 84.1633692 13.28 83.513591"></polygon>
                                <polygon points="18.4824742 79.8543141 18.4824742 82.4876255 36.3146392 78.8967463 36.3146392 76.1608383"></polygon>
                                <polygon points="45.7612371 74.2115039 45.7612371 77.0158096 54.8313402 75.2032705 54.8313402 72.3305672"></polygon>
                                <polygon points="4.65484536 77.3235992 0.205360825 78.281167 0.205360825 80.8460808 4.65484536 79.888513"></polygon>
                                <polygon points="13.28 75.4426625 10.0284536 76.1608383 10.0284536 78.7599509 13.28 78.0417751"></polygon>
                                <polygon points="18.4482474 74.3141005 18.4482474 76.9474119 36.3146392 73.1513396 36.3146392 70.4154316"></polygon>
                                <polygon points="43.9129897 68.739688 40.2164948 69.5604603 40.2164948 72.3305672 43.9129897 71.5439936"></polygon>
                                <polygon points="45.7612371 68.3293018 45.7612371 71.1336074 54.8313402 69.2184718 54.8313402 66.3457685"></polygon>
                                <polygon points="7.29030928 71.3388005 0.205360825 72.9803453 0.205360825 75.5110602 7.29030928 73.9379131"></polygon>
                                <polygon points="13.2457732 69.9708465 10.0284536 70.7232212 10.0284536 73.3223338 13.28 72.5699591"></polygon>
                                <polygon points="18.4482474 68.7738868 18.4482474 71.4071982 36.3146392 67.4059328 36.3146392 64.635826"></polygon>
                                <polygon points="43.9129897 62.8916846 40.2164948 63.7466559 40.2164948 66.5167627 43.9129897 65.6959903"></polygon>
                                <polygon points="45.7612371 62.4812985 45.7612371 65.2856041 54.8313402 63.2336731 54.8313402 60.3609698"></polygon>
                                <polygon points="13.2457732 64.4990306 9.9942268 65.2856041 10.0284536 67.8847167 13.2457732 67.0981432"></polygon>
                                <polygon points="7.25608247 65.9353823 0.205360825 67.6453248 0.205360825 70.2102385 7.25608247 68.5344949"></polygon>
                                <polygon points="18.4482474 63.2336731 18.4482474 65.8669846 36.3146392 61.6605261 36.3146392 58.8904192"></polygon>
                                <polygon points="45.7612371 56.5990963 45.7612371 59.403402 54.8313402 57.2488744 54.8313402 54.4103699"></polygon>
                                <polygon points="43.9129897 57.0436813 40.2164948 57.9328514 40.2164948 60.7371571 43.9129897 59.847987"></polygon>
                                <polygon points="7.25608247 60.531964 0.171134021 62.3445031 0.171134021 64.8752179 7.25608247 63.1310766"></polygon>
                                <polygon points="13.2457732 58.9930158 9.9942268 59.847987 9.9942268 62.4470996 13.2457732 61.6263272"></polygon>
                                <polygon points="18.4482474 57.6934595 18.4482474 60.3267709 28.5109278 57.8302549 28.5109278 55.1285458"></polygon>
                                <polygon points="43.8787629 51.195678 40.182268 52.1532458 40.2164948 54.9233527 43.9129897 53.9999837"></polygon>
                                <polygon points="45.7612371 50.7168941 45.7612371 53.5211998 54.8313402 51.2640757 54.8313402 48.4255712"></polygon>
                                <polygon points="7.25608247 55.1285458 0.171134021 57.0094825 0.171134021 59.5743962 7.25608247 57.6934595"></polygon>
                                <polygon points="13.2457732 53.5211998 9.9942268 54.3761711 9.9942268 57.0094825 13.2457732 56.1545113"></polygon>
                                <polygon points="18.4140206 52.1532458 18.4482474 54.7865573 28.5109278 52.1532458 28.5109278 49.4515367"></polygon>
                                <polygon points="43.8787629 45.3476747 40.182268 46.3394414 40.182268 49.1095482 43.8787629 48.1519804"></polygon>
                                <polygon points="45.7612371 44.834692 45.7612371 47.6389977 54.8313402 45.279277 54.8313402 42.4407725"></polygon>
                            </g>
                        </g>
                    </g>
                    <g transform="translate(310.094845, 136.453410)" id="Path">
                        <polygon fill="#B56569" points="7.63257732 0.170994249 7.63257732 120.037963 0.136907216 120.037963 0.136907216 4.34325392"></polygon>
                        <polygon fill="#D17B62" points="20.6045361 4.68524241 20.6045361 120.037963 7.63257732 120.037963 7.63257732 0.170994249"></polygon>
                    </g>
                    <g transform="translate(455.901031, 109.436319)" fill="#FCD089" id="Path">
                        <polygon points="6.77690722 0.205193098 6.77690722 147.055054 0.0684536082 147.055054 0.0684536082 4.17225967"></polygon>
                    </g>
                    <g transform="translate(241.641237, 0.000000)" id="Path">
                        <g transform="translate(28.065979, 0.000000)">
                            <polygon fill="#FDD38D" points="0.0684536082 256.491373 44.0498969 256.491373 44.0498969 11.0804273 0.0684536082 0.136795399"></polygon>
                            <g transform="translate(2.395876, 4.787839)" fill="#B57A6F">
                                <polygon points="23.068866 171.267839 26.4230928 171.438834 26.4230928 177.081644 23.068866 176.91065"></polygon>
                                <polygon points="14.7175258 170.754857 21.0494845 171.131044 21.0494845 176.808053 14.7175258 176.466065"></polygon>
                                <polygon points="3.55958763 170.139277 3.55958763 175.918883 0.0342268041 175.71369 0.0342268041 169.934084"></polygon>
                                <polygon points="6.12659794 170.276073 11.5002062 170.583862 11.5002062 176.329269 6.12659794 176.02148"></polygon>
                                <polygon points="32.4470103 171.780822 38.0602062 172.122811 38.0602062 177.697223 32.4470103 177.389434"></polygon>
                                <polygon points="32.4470103 160.084816 38.0602062 160.495202 38.0602062 166.035415 32.4470103 165.693427"></polygon>
                                <polygon points="23.068866 159.435037 26.4230928 159.674429 26.4230928 165.283041 23.068866 165.077848"></polygon>
                                <polygon points="15.7785567 158.887856 21.0494845 159.264043 21.0494845 164.941052 15.7785567 164.599064"></polygon>
                                <polygon points="3.55958763 158.032885 3.55958763 163.81249 0.0342268041 163.573098 0.0342268041 157.793493"></polygon>
                                <polygon points="7.97484536 158.340674 11.1921649 158.580066 11.1921649 164.325473 7.97484536 164.086081"></polygon>
                                <polygon points="14.7175258 146.88406 21.0494845 147.431241 21.0494845 153.10825 14.7175258 152.595267"></polygon>
                                <polygon points="7.90639175 146.302679 13.28 146.781463 13.28 152.492671 7.90639175 152.082285"></polygon>
                                <polygon points="3.55958763 145.960691 3.55958763 151.740296 0.0342268041 151.466705 0.0342268041 145.652901"></polygon>
                                <polygon points="23.068866 147.602235 26.4230928 147.875826 26.4230928 153.518636 23.068866 153.245046"></polygon>
                                <polygon points="32.4470103 148.388809 38.0602062 148.867593 38.0602062 154.407807 32.4470103 153.99742"></polygon>
                                <polygon points="32.4470103 136.692802 39.5661856 137.376779 39.5661856 142.916993 32.4470103 142.267215"></polygon>
                                <polygon points="26.388866 136.077223 29.7430928 136.419212 29.7430928 142.027823 26.388866 141.720033"></polygon>
                                <polygon points="18.1059794 135.29065 24.4037113 135.906229 24.4037113 141.549039 18.1059794 140.967659"></polygon>
                                <polygon points="6.29773196 134.127889 6.29773196 139.873295 2.77237113 139.565506 2.77237113 133.7859"></polygon>
                                <polygon points="10.6103093 134.538275 13.28 134.811866 13.28 140.523074 10.6103093 140.283682"></polygon>
                                <polygon points="32.4470103 124.996796 39.5661856 125.783369 39.5661856 131.323583 32.4470103 130.571208"></polygon>
                                <polygon points="23.068866 123.936631 26.4230928 124.312819 26.4230928 129.955629 23.068866 129.579442"></polygon>
                                <polygon points="14.7175258 123.013262 21.0494845 123.731438 21.0494845 129.374249 14.7175258 128.72447"></polygon>
                                <polygon points="8.2828866 122.295087 10.9525773 122.602876 10.9525773 128.314084 8.2828866 128.040493"></polygon>
                                <polygon points="6.29773196 122.089894 6.29773196 127.8353 2.77237113 127.459113 2.77237113 121.679507"></polygon>
                                <polygon points="32.4470103 113.26659 36.52 113.779573 36.52 119.353986 32.4470103 118.875202"></polygon>
                                <polygon points="24.1983505 112.240625 30.051134 112.992999 30.051134 118.601611 24.1983505 117.917634"></polygon>
                                <polygon points="3.55958763 109.675711 3.55958763 115.455317 0.0342268041 115.04493 0.0342268041 109.231126"></polygon>
                                <polygon points="7.90639175 110.222893 13.28 110.90687 13.28 116.618078 7.90639175 115.968299"></polygon>
                                <polygon points="16.7369072 111.317256 21.0494845 111.864437 21.0494845 117.541447 16.7369072 117.028464"></polygon>
                                <polygon points="34.774433 101.912572 38.8474227 102.459754 38.8474227 107.999967 34.774433 107.486985"></polygon>
                                <polygon points="22.8635052 100.271027 28.7505155 101.057601 28.7505155 106.700411 22.8635052 105.913838"></polygon>
                                <polygon points="16.7369072 99.4160562 21.0494845 99.9974366 21.0494845 105.674446 16.7369072 105.093065"></polygon>
                                <polygon points="5.75010309 97.9113068 5.75010309 103.656714 2.22474227 103.212128 2.22474227 97.398324"></polygon>
                                <polygon points="7.90639175 98.1848976 13.28 98.9372723 13.28 104.64848 7.90639175 103.964503"></polygon>
                                <polygon points="32.4470103 89.8745771 36.52 90.4901564 36.52 96.0645689 32.4470103 95.4831884"></polygon>
                                <polygon points="24.0614433 88.6092196 29.9142268 89.4983897 29.9142268 95.1070011 24.0614433 94.2520298"></polygon>
                                <polygon points="16.7369072 87.5148565 21.0494845 88.1646346 21.0494845 93.8074448 16.7369072 93.1918655"></polygon>
                                <polygon points="5.85278351 85.8391128 5.85278351 91.6187184 0.102680412 90.797946 0.102680412 84.9841416"></polygon>
                                <polygon points="10.0626804 86.488891 13.28 86.9676749 13.28 92.7130816 10.0626804 92.2342977"></polygon>
                                <polygon points="16.7369072 75.5794579 21.0494845 76.2976337 21.0494845 81.9746428 16.7369072 81.2906658"></polygon>
                                <polygon points="10.0626804 74.4850947 13.28 75.0322763 13.28 80.7434842 10.0626804 80.2305015"></polygon>
                                <polygon points="7.90639175 74.1431062 7.90639175 79.888513 2.22474227 78.9993429 2.22474227 73.1855384"></polygon>
                                <polygon points="26.7995876 77.2552015 30.051134 77.7681843 30.051134 83.3767956 26.7995876 82.8638129"></polygon>
                                <polygon points="32.4470103 78.1785705 39.5661856 79.3413314 39.5661856 84.881545 32.4470103 83.752983"></polygon>
                                <polygon points="23.9929897 64.9778145 27.2787629 65.5591949 27.2787629 71.1678063 23.9929897 70.6206247"></polygon>
                                <polygon points="16.7369072 63.6782582 21.0494845 64.4306329 21.0494845 70.1076419 16.7369072 69.3894661"></polygon>
                                <polygon points="7.90639175 62.1051111 13.28 63.0626789 13.28 68.7738868 7.90639175 67.8505179"></polygon>
                                <polygon points="5.75010309 61.7289238 5.75010309 67.4743305 2.22474227 66.8929501 2.22474227 61.0791456"></polygon>
                                <polygon points="32.4470103 66.4825639 39.5661856 67.7479213 39.5661856 73.288135 32.4470103 72.0569764"></polygon>
                                <polygon points="26.7995876 53.6921941 30.051134 54.3077734 30.051134 59.9163847 26.7995876 59.3008054"></polygon>
                                <polygon points="7.90639175 50.067116 13.28 51.0930815 13.28 56.8384882 7.90639175 55.8467216"></polygon>
                                <polygon points="3.55958763 49.2463436 3.55958763 55.0259492 0.0342268041 54.3761711 0.0342268041 48.5623666"></polygon>
                                <polygon points="16.7369072 51.7770585 21.0494845 52.5978309 21.0494845 58.2406411 16.7369072 57.4540675"></polygon>
                                <polygon points="35.3220619 55.29954 39.5661856 56.1203124 39.5661856 61.6605261 35.3220619 60.8739525"></polygon>
                                <polygon points="32.4470103 43.0563518 39.5661856 44.5269023 39.5661856 50.067116 32.4470103 48.6649632"></polygon>
                                <polygon points="24.1983505 41.3806082 30.051134 42.5775679 30.051134 48.1861793 24.1983505 47.0234184"></polygon>
                                <polygon points="7.90639175 38.0633197 13.28 39.1576829 13.28 44.8688908 7.90639175 43.8087265"></polygon>
                                <polygon points="3.55958763 37.1741497 3.55958763 42.9537553 0.0342268041 42.2355794 0.0342268041 36.421775"></polygon>
                                <polygon points="16.7369072 39.8416599 21.0494845 40.73083 21.0494845 46.4078391 16.7369072 45.5528678"></polygon>
                                <polygon points="32.4470103 31.3603452 34.5006186 31.8049302 34.5006186 37.3793428 32.4470103 36.9689566"></polygon>
                                <polygon points="16.7369072 27.9404602 21.0494845 28.8638292 21.0494845 34.5408382 16.7369072 33.6516681"></polygon>
                                <polygon points="11.1579381 26.7093016 13.28 27.1880855 13.28 32.8992934 11.1579381 32.4547084"></polygon>
                                <polygon points="9.00164948 26.2647166 9.00164948 32.0101233 2.22474227 30.5737717 2.22474227 24.7599672"></polygon>
                                <polygon points="24.1983505 29.5478062 30.051134 30.8473625 30.051134 36.4559738 24.1983505 35.2248152"></polygon>
                                <polygon points="35.4247423 20.3483156 37.4783505 20.8270995 37.4783505 26.3673131 35.4247423 25.9227281"></polygon>
                                <polygon points="24.1983505 17.749203 30.051134 19.117157 30.051134 24.7257684 24.1983505 23.3920132"></polygon>
                                <polygon points="16.7369072 16.0392605 21.0494845 17.0310272 21.0494845 22.7080362 16.7369072 21.7162696"></polygon>
                                <polygon points="12.2531959 14.9790962 14.3752577 15.4920789 14.3752577 21.2032868 12.2531959 20.7245029"></polygon>
                                <polygon points="7.18762887 13.8163353 7.18762887 19.5959409 0.376494845 18.0569927 0.376494845 12.2431882"></polygon>
                                <polygon points="32.4470103 7.96833199 39.5661856 9.67827447 39.5661856 15.252687 32.4470103 13.5427445"></polygon>
                                <polygon points="24.1983505 5.916401 30.051134 7.35275269 30.051134 12.9955629 24.1983505 11.5934101"></polygon>
                                <polygon points="16.7369072 4.10386197 21.0494845 5.16402631 21.0494845 10.8410354 16.7369072 9.81506987"></polygon>
                                <polygon points="7.90639175 1.94933443 13.28 3.28308957 13.28 8.99429748 7.90639175 7.69474119"></polygon>
                                <polygon points="3.55958763 0.889170093 3.55958763 6.6687757 0.0342268041 5.8480033 0.0342268041 0.0341988497"></polygon>
                                <polygon points="32.4470103 183.75042 39.5661856 184.058209 39.5661856 189.598423 32.4470103 189.324832"></polygon>
                                <polygon points="24.1983505 183.374232 30.051134 183.647823 30.051134 189.256434 24.1983505 189.017042"></polygon>
                                <polygon points="10.6103093 182.792852 15.9496907 182.998045 15.9496907 188.709253 10.6103093 188.50406"></polygon>
                                <polygon points="3.55958763 182.450863 3.55958763 188.230469 0.0342268041 188.093673 0.0342268041 182.314068"></polygon>
                                <polygon points="17.3529897 183.066443 21.0494845 183.237437 21.0494845 188.914446 17.3529897 188.77765"></polygon>
                            </g>
                        </g>
                        <g>
                            <polygon fill="#B57A6F" points="0.0342268041 256.491373 28.134433 256.491373 28.134433 0.136795399 0.0342268041 12.1063928"></polygon>
                            <g transform="translate(3.422680, 5.129827)" fill="#A3404B">
                                <polygon points="12.6639175 170.65226 14.5806186 170.447067 14.5806186 176.158275 12.6639175 176.329269"></polygon>
                                <polygon points="7.97484536 171.096845 11.5002062 170.754857 11.5002062 176.431866 7.97484536 176.739655"></polygon>
                                <polygon points="1.98515464 171.678226 1.98515464 177.252638 0.136907216 177.423632 0.136907216 171.883419"></polygon>
                                <polygon points="3.32 171.575629 6.22927835 171.267839 6.22927835 176.876451 3.32 177.150042"></polygon>
                                <polygon points="18.1059794 170.105079 21.494433 169.76309 21.494433 175.542696 18.1059794 175.850485"></polygon>
                                <polygon points="18.1059794 158.067083 21.494433 157.656697 21.494433 163.436303 18.1059794 163.81249"></polygon>
                                <polygon points="12.6639175 158.75106 14.5806186 158.511668 14.5806186 164.222876 12.6639175 164.428069"></polygon>
                                <polygon points="8.55670103 159.229844 11.5002062 158.887856 11.5002062 164.564865 8.55670103 164.872655"></polygon>
                                <polygon points="1.98515464 160.050617 1.98515464 165.625029 0.136907216 165.830222 0.136907216 160.25581"></polygon>
                                <polygon points="4.31257732 159.777026 6.05814433 159.537634 6.05814433 165.180444 4.31257732 165.351438"></polygon>
                                <polygon points="7.97484536 147.533838 11.5002062 147.020855 11.5002062 152.697864 7.97484536 153.176648"></polygon>
                                <polygon points="4.27835052 148.081019 7.18762887 147.636434 7.18762887 153.279244 4.27835052 153.655432"></polygon>
                                <polygon points="1.98515464 148.388809 1.98515464 153.963221 0.136907216 154.202613 0.136907216 148.6624"></polygon>
                                <polygon points="12.6639175 146.849861 14.5806186 146.57627 14.5806186 152.287478 12.6639175 152.52687"></polygon>
                                <polygon points="18.1059794 146.063287 21.494433 145.584503 21.494433 151.364109 18.1059794 151.808694"></polygon>
                                <polygon points="18.1059794 134.059491 22.4185567 133.341315 22.4185567 139.120921 18.1059794 139.804898"></polygon>
                                <polygon points="14.5463918 134.640871 16.5315464 134.333082 16.5315464 140.04429 14.5463918 140.352079"></polygon>
                                <polygon points="9.85731959 135.427445 13.4169072 134.846064 13.4169072 140.523074 9.85731959 141.104454"></polygon>
                                <polygon points="3.42268041 136.521808 3.42268041 142.096221 1.57443299 142.40401 1.57443299 136.829598"></polygon>
                                <polygon points="5.75010309 136.111422 7.18762887 135.87203 7.18762887 141.51484 5.75010309 141.720033"></polygon>
                                <polygon points="18.1059794 122.021496 22.4185567 121.200723 22.4185567 127.014528 18.1059794 127.766903"></polygon>
                                <polygon points="12.6639175 123.08166 14.5806186 122.705473 14.5806186 128.416681 12.6639175 128.758669"></polygon>
                                <polygon points="7.97484536 123.97083 11.5002062 123.286853 11.5002062 128.963862 7.97484536 129.61364"></polygon>
                                <polygon points="4.48371134 124.620608 5.92123711 124.347018 5.92123711 129.955629 4.48371134 130.22922"></polygon>
                                <polygon points="3.42268041 124.825802 3.42268041 130.400214 1.57443299 130.742203 1.57443299 125.16779"></polygon>
                                <polygon points="18.1059794 110.0177 20.5703093 109.504717 20.5703093 115.284322 18.1059794 115.763106"></polygon>
                                <polygon points="13.28 111.043665 16.7026804 110.325489 16.7026804 116.036697 13.28 116.754873"></polygon>
                                <polygon points="1.98515464 113.437585 1.98515464 119.011997 0.136907216 119.388184 0.136907216 113.847971"></polygon>
                                <polygon points="4.27835052 112.958801 7.18762887 112.343221 7.18762887 117.986032 4.27835052 118.567412"></polygon>
                                <polygon points="9.1043299 111.932835 11.5002062 111.419852 11.5002062 117.096861 9.1043299 117.575645"></polygon>
                                <polygon points="19.5435052 97.6719148 22.0078351 97.0905344 22.0078351 102.87014 19.5435052 103.417322"></polygon>
                                <polygon points="12.5270103 99.3134596 15.9154639 98.5268861 15.9154639 104.238094 12.5270103 104.990469"></polygon>
                                <polygon points="9.1043299 100.134232 11.5002062 99.5528516 11.5002062 105.229861 9.1043299 105.777042"></polygon>
                                <polygon points="3.14886598 101.536385 3.14886598 107.110797 1.26639175 107.521184 1.26639175 101.98097"></polygon>
                                <polygon points="4.27835052 101.262794 7.18762887 100.578817 7.18762887 106.221627 4.27835052 106.871405"></polygon>
                                <polygon points="18.1059794 85.9759082 20.5703093 85.3603289 20.5703093 91.1399345 18.1059794 91.721315"></polygon>
                                <polygon points="13.2115464 87.2412657 16.6342268 86.3862944 16.6342268 92.0975023 13.2115464 92.9524736"></polygon>
                                <polygon points="9.1043299 88.3356288 11.5002062 87.6858507 11.5002062 93.3628598 9.1043299 93.978439"></polygon>
                                <polygon points="3.18309278 89.8403782 3.18309278 95.4489896 0.171134021 96.1671654 0.171134021 90.6269518"></polygon>
                                <polygon points="5.44206186 89.2589978 7.18762887 88.8144127 7.18762887 94.4572229 5.44206186 94.8676091"></polygon>
                                <polygon points="9.1043299 76.5028268 11.5002062 75.8188498 11.5002062 81.4958589 9.1043299 82.145637"></polygon>
                                <polygon points="5.44206186 77.5287923 7.18762887 77.0500084 7.18762887 82.6586198 5.44206186 83.1374037"></polygon>
                                <polygon points="4.27835052 77.8707808 4.27835052 83.4451933 1.26639175 84.2659657 1.26639175 78.7257521"></polygon>
                                <polygon points="14.7859794 74.8954809 16.7026804 74.3824982 16.7026804 80.0937061 14.7859794 80.6066888"></polygon>
                                <polygon points="18.1059794 73.972112 22.4185567 72.7751522 22.4185567 78.5547578 18.1059794 79.7175187"></polygon>
                                <polygon points="13.1773196 63.4730651 15.0940206 62.8916846 15.0940206 68.6028926 13.1773196 69.1500741"></polygon>
                                <polygon points="9.1043299 64.7042237 11.5002062 63.951849 11.5002062 69.628858 9.1043299 70.3470339"></polygon>
                                <polygon points="4.27835052 66.1747742 7.18762887 65.2856041 7.18762887 70.8942155 4.27835052 71.7491867"></polygon>
                                <polygon points="3.14886598 66.5167627 3.14886598 72.0911752 1.26639175 72.6383568 1.26639175 67.0639443"></polygon>
                                <polygon points="18.1059794 61.9683157 22.4185567 60.6345606 22.4185567 66.448365 18.1059794 67.7137225"></polygon>
                                <polygon points="14.7859794 51.0246838 16.7026804 50.4091045 16.7026804 56.1203124 14.7859794 56.7358917"></polygon>
                                <polygon points="4.27835052 54.4787676 7.18762887 53.5211998 7.18762887 59.1298112 4.27835052 60.0531801"></polygon>
                                <polygon points="1.98515464 55.2311423 1.98515464 60.771356 0.136907216 61.3869353 0.136907216 55.8125228"></polygon>
                                <polygon points="9.1043299 52.9056205 11.5002062 52.119047 11.5002062 57.7618572 9.1043299 58.5484307"></polygon>
                                <polygon points="19.8515464 49.383139 22.4185567 48.5281678 22.4185567 54.3419722 19.8515464 55.1285458"></polygon>
                                <polygon points="18.1059794 37.9265243 22.4185567 36.421775 22.4185567 42.2013806 18.1059794 43.6719311"></polygon>
                                <polygon points="13.28 39.602268 16.7026804 38.4053082 16.7026804 44.150715 13.28 45.3134759"></polygon>
                                <polygon points="4.27835052 42.7485622 7.18762887 41.7567955 7.18762887 47.3654069 4.27835052 48.3571735"></polygon>
                                <polygon points="1.98515464 43.5693346 1.98515464 49.1437471 0.136907216 49.7593264 0.136907216 44.2191127"></polygon>
                                <polygon points="9.1043299 41.0728185 11.5002062 40.2520461 11.5002062 45.8948563 9.1043299 46.7156287"></polygon>
                                <polygon points="18.1059794 25.9227281 19.3381443 25.4439442 19.3381443 31.2235498 18.1059794 31.6681348"></polygon>
                                <polygon points="9.1043299 29.2742154 11.5002062 28.3850453 11.5002062 34.0620543 9.1043299 34.9170256"></polygon>
                                <polygon points="6.02391753 30.4027774 7.18762887 29.9923912 7.18762887 35.6010026 6.02391753 36.0455876"></polygon>
                                <polygon points="4.86020619 30.8473625 4.86020619 36.4559738 1.26639175 37.7555301 1.26639175 32.1811176"></polygon>
                                <polygon points="13.28 27.7010683 16.7026804 26.4357108 16.7026804 32.1811176 13.28 33.4122762"></polygon>
                                <polygon points="19.92 13.1665571 21.1521649 12.6877732 21.1521649 18.4673789 19.92 18.9461627"></polygon>
                                <polygon points="13.28 15.7998686 16.7026804 14.4661134 16.7026804 20.1773213 13.28 21.5110765"></polygon>
                                <polygon points="9.1043299 17.4756122 11.5002062 16.5180444 11.5002062 22.1950535 9.1043299 23.1184224"></polygon>
                                <polygon points="6.6057732 18.43318 7.80371134 17.988595 7.80371134 23.5972063 6.6057732 24.0759902"></polygon>
                                <polygon points="3.90185567 19.5275432 3.90185567 25.1019557 0.342268041 26.4699097 0.342268041 20.929696"></polygon>
                                <polygon points="18.1059794 1.88093673 22.4185567 0.0683976995 22.4185567 5.88220215 18.1059794 7.62634349"></polygon>
                                <polygon points="13.28 3.89866887 16.7026804 2.46231718 16.7026804 8.20772393 13.28 9.57567792"></polygon>
                                <polygon points="9.1043299 5.6428102 11.5002062 4.65104356 11.5002062 10.3280526 9.1043299 11.2856204"></polygon>
                                <polygon points="4.27835052 7.66054234 7.18762887 6.4635826 7.18762887 12.072194 4.27835052 13.2691537"></polygon>
                                <polygon points="1.98515464 8.61811013 1.98515464 14.1925226 0.136907216 14.9448973 0.136907216 9.40468367"></polygon>
                                <polygon points="18.1059794 182.348267 22.4185567 182.040477 22.4185567 187.820083 18.1059794 188.093673"></polygon>
                                <polygon points="13.28 182.724454 16.7026804 182.485062 16.7026804 188.19627 13.28 188.435662"></polygon>
                                <polygon points="5.75010309 183.305835 8.65938144 183.066443 8.65938144 188.709253 5.75010309 188.914446"></polygon>
                                <polygon points="1.98515464 183.579425 1.98515464 189.153838 0.136907216 189.290633 0.136907216 183.716221"></polygon>
                                <polygon points="9.44659794 183.032244 11.5002062 182.861249 11.5002062 188.538259 9.44659794 188.675054"></polygon>
                            </g>
                        </g>
                    </g>
                    <g transform="translate(383.340206, 100.202630)" id="Path">
                        <polygon fill="#B56569" points="20.8098969 156.288743 0.136907216 156.288743 0.136907216 9.09689403 20.8098969 0"></polygon>
                        <g transform="translate(1.711340, 0.000000)">
                            <polygon fill="#F5A16C" points="19.1670103 156.288743 59.8969072 156.288743 59.8969072 9.84926872 19.1670103 0"></polygon>
                            <g transform="translate(23.958763, 8.891701)" fill="#FCD089">
                                <polygon points="0.102680412 0.239391948 0.102680412 146.371077 3.42268041 146.371077 3.42268041 0.957567792"></polygon>
                                <polygon points="9.96 2.29132293 9.96 146.371077 13.28 146.371077 13.28 2.97529993"></polygon>
                                <polygon points="19.8173196 4.34325392 19.8173196 146.371077 23.1715464 146.371077 23.1715464 5.02723091"></polygon>
                                <polygon points="29.6746392 6.3951849 29.6746392 146.371077 33.028866 146.371077 33.028866 7.07916189"></polygon>
                            </g>
                            <g transform="translate(0.000000, 8.891701)" fill="#FCD089">
                                <polygon points="16.4973196 0.239391948 16.4973196 146.371077 14.8202062 146.371077 14.8202062 0.923368943"></polygon>
                                <polygon points="11.5686598 2.22292523 11.5686598 146.371077 9.89154639 146.371077 9.89154639 2.87270338"></polygon>
                                <polygon points="6.64 4.17225967 6.64 146.371077 4.9628866 146.371077 4.9628866 4.85623666"></polygon>
                                <polygon points="1.71134021 6.15579295 1.71134021 146.371077 0.0342268041 146.371077 0.0342268041 6.8055711"></polygon>
                            </g>
                        </g>
                    </g>
                    <g transform="translate(207.414433, 52.666229)" id="Path">
                        <polygon fill="#B56569" points="17.1476289 203.825144 17.1476289 0.0341988497 0.136907216 7.52374694 0.136907216 203.825144"></polygon>
                        <g transform="translate(1.369072, 0.000000)">
                            <polygon fill="#F5A16C" points="49.3892784 203.825144 49.3892784 8.13932623 15.8470103 0.0341988497 15.8470103 203.825144"></polygon>
                            <g transform="translate(19.851546, 7.523747)" fill="#FCD089">
                                <polygon points="2.77237113 196.301397 2.77237113 0.615579295 0 0.0341988497 0 196.301397"></polygon>
                                <polygon points="10.8841237 196.301397 10.8841237 2.29132293 8.14597938 1.70994249 8.14597938 196.301397"></polygon>
                                <polygon points="18.9958763 196.301397 18.9958763 3.96706657 16.257732 3.41988497 16.257732 196.301397"></polygon>
                                <polygon points="27.1418557 196.301397 27.1418557 5.6428102 24.3694845 5.09562861 24.3694845 196.301397"></polygon>
                            </g>
                            <g transform="translate(0.000000, 7.523747)" fill="#FCD089">
                                <polygon points="13.6564948 196.301397 13.6564948 0.0341988497 12.2874227 0.581380445 12.2874227 196.301397"></polygon>
                                <polygon points="9.58350515 196.301397 9.58350515 1.64154479 8.21443299 2.18872638 8.21443299 196.301397"></polygon>
                                <polygon points="5.51051546 196.301397 5.51051546 3.24889072 4.1414433 3.83027117 4.1414433 196.301397"></polygon>
                                <polygon points="1.47175258 196.301397 1.47175258 4.89043551 0.0684536082 5.43761711 0.0684536082 196.301397"></polygon>
                            </g>
                        </g>
                    </g>
                    <g transform="translate(133.484536, 6.839770)" id="Path">
                        <g>
                            <polygon fill="#B56569" points="28.8874227 249.651603 0.102680412 249.651603 0.102680412 12.8587675 28.8874227 0.170994249"></polygon>
                            <g transform="translate(28.750515, 0.000000)">
                                <polygon fill="#F5A16C" points="0.239587629 249.651603 57.0560825 249.651603 57.0560825 13.884733 0.239587629 0.170994249"></polygon>
                                <g transform="translate(10.952577, 16.415448)" fill="#FCD089">
                                    <polygon points="35.4589691 164.530666 35.4589691 170.378669 0 169.079113 0 162.991718"></polygon>
                                    <polygon points="35.4589691 152.287478 35.4589691 158.135481 10.0284536 156.835925 10.0284536 150.816927"></polygon>
                                    <polygon points="39.84 140.386278 39.84 146.200083 0 143.60097 0 137.513575"></polygon>
                                    <polygon points="39.84 128.211488 39.84 134.025292 0 130.878998 0 124.791603"></polygon>
                                    <polygon points="26.7653608 114.737141 26.7653608 120.653542 0 118.122827 0 112.035432"></polygon>
                                    <polygon points="39.84 103.861907 39.84 109.70991 15.8127835 107.110797 15.8127835 101.125999"></polygon>
                                    <polygon points="37.8890722 91.4477242 37.8890722 97.2957275 0 92.6446839 0 86.5572887"></polygon>
                                    <polygon points="37.8890722 79.2729337 37.8890722 85.0867381 0 79.9227118 0 73.8353166"></polygon>
                                    <polygon points="39.84 67.371734 39.84 73.1855384 0 67.2007397 0 61.0791456"></polygon>
                                    <polygon points="39.84 55.1969435 39.84 61.0449468 9.89154639 56.0861136 9.89154639 50.067116"></polygon>
                                    <polygon points="39.84 43.0563518 39.84 48.8701563 19.5435052 45.2108793 19.5435052 39.2602795"></polygon>
                                    <polygon points="39.84 30.8815613 39.84 36.6953658 19.5435052 32.762498 19.5435052 26.8118982"></polygon>
                                    <polygon points="39.84 18.7067708 39.84 24.5205753 9.89154639 18.2963846 9.89154639 12.2773871"></polygon>
                                    <polygon points="39.84 6.5319803 39.84 12.3457848 11.9451546 6.15579295 11.9451546 0.136795399"></polygon>
                                </g>
                            </g>
                        </g>
                        <g transform="translate(6.160825, 8.891701)" fill="#F5A16C">
                            <polygon points="16.5657732 0.239391948 16.5657732 208.886574 14.9228866 208.886574 14.9228866 1.19695974"></polygon>
                            <polygon points="11.6371134 3.04369763 11.6371134 208.886574 9.9942268 208.886574 9.9942268 4.00126542"></polygon>
                            <polygon points="6.70845361 5.8480033 6.70845361 208.886574 5.03134021 208.886574 5.03134021 6.8055711"></polygon>
                            <polygon points="1.77979381 8.65230898 1.77979381 208.886574 0.102680412 208.886574 0.102680412 9.60987677"></polygon>
                        </g>
                    </g>
                    <g transform="translate(129.377320, 100.886607)" id="Path">
                        <polygon fill="#B56569" points="20.8441237 155.604766 0.308041237 155.604766 0.308041237 9.23368943 20.8441237 0.205193098"></polygon>
                        <g transform="translate(1.711340, 0.000000)">
                            <polygon fill="#F5A16C" points="19.2012371 155.604766 59.7257732 155.604766 59.7257732 9.98606412 19.2012371 0.205193098"></polygon>
                            <polygon fill="#CC7A5F" points="19.2012371 62.6522927 19.2012371 155.604766 59.7257732 155.604766 59.7257732 19.1513558"></polygon>
                            <g transform="translate(23.958763, 9.233689)" fill="#FCD089">
                                <polygon points="0.102680412 0.0341988497 0.102680412 145.345111 3.42268041 145.345111 3.42268041 0.752374694"></polygon>
                                <polygon points="9.9257732 2.08612983 9.9257732 145.345111 13.2457732 145.345111 13.2457732 2.77010683"></polygon>
                                <polygon points="19.7146392 4.10386197 19.7146392 145.345111 23.0346392 145.345111 23.0346392 4.82203781"></polygon>
                                <polygon points="29.537732 6.15579295 29.537732 145.345111 32.857732 145.345111 32.857732 6.83976995"></polygon>
                            </g>
                            <g transform="translate(0.000000, 9.233689)" fill="#FCD089">
                                <polygon points="16.5657732 0.0341988497 16.5657732 145.345111 14.8886598 145.345111 14.8886598 0.718175844"></polygon>
                                <polygon points="11.6713402 1.98353328 11.6713402 145.345111 9.9942268 145.345111 9.9942268 2.66751028"></polygon>
                                <polygon points="6.74268041 3.96706657 6.74268041 145.345111 5.09979381 145.345111 5.09979381 4.61684471"></polygon>
                                <polygon points="1.84824742 5.916401 1.84824742 145.345111 0.171134021 145.345111 0.171134021 6.56617915"></polygon>
                            </g>
                        </g>
                    </g>
                    <g transform="translate(46.890722, 29.411011)" id="Path">
                        <g transform="translate(12.321649, 0.000000)">
                            <polygon fill="#B56569" points="65.9208247 11.6276089 65.9208247 227.080362 0.0342268041 227.080362 0.0342268041 0.136795399"></polygon>
                            <polygon fill="#A3404B" points="0.0342268041 84.9499427 0.0342268041 227.080362 65.9208247 227.080362 65.9208247 36.4559738"></polygon>
                            <g transform="translate(5.476289, 8.891701)" fill="#FCD089">
                                <polygon points="45.0082474 154.031619 55.8239175 154.613 55.8239175 159.571833 45.0082474 159.05885"></polygon>
                                <polygon points="38.8474227 153.72383 42.0647423 153.894824 42.0647423 158.922055 38.8474227 158.75106"></polygon>
                                <polygon points="31.8651546 153.381841 31.8651546 158.443271 24.5063918 158.067083 24.5063918 153.005654"></polygon>
                                <polygon points="25.5674227 142.40401 25.5674227 147.499639 18.1402062 147.089253 18.1402062 141.959425"></polygon>
                                <polygon points="38.8474227 143.190584 42.0647423 143.395777 42.0647423 148.423008 38.8474227 148.252014"></polygon>
                                <polygon points="45.0082474 143.566771 55.8239175 144.216549 55.8239175 149.175383 45.0082474 148.594002"></polygon>
                                <polygon points="48.1571134 133.307116 55.8239175 133.854298 55.8239175 138.813131 48.1571134 138.300148"></polygon>
                                <polygon points="38.8474227 132.691537 45.2136082 133.101923 45.2136082 138.129154 38.8474227 137.718768"></polygon>
                                <polygon points="36.3146392 132.520543 36.3146392 137.547774 18.1402062 136.385013 18.1402062 131.289384"></polygon>
                                <polygon points="48.1571134 122.876467 53.3938144 123.286853 53.3938144 128.245686 48.1571134 127.869499"></polygon>
                                <polygon points="38.8474227 122.158291 45.2136082 122.637075 45.2136082 127.664306 38.8474227 127.185522"></polygon>
                                <polygon points="30.1880412 121.508513 30.1880412 126.569943 23.24 126.05696 23.24 120.961331"></polygon>
                                <polygon points="49.628866 112.548414 53.3938144 112.890403 53.3938144 117.849236 49.628866 117.541447"></polygon>
                                <polygon points="41.756701 111.898636 46.6853608 112.309023 46.6853608 117.302055 41.756701 116.891668"></polygon>
                                <polygon points="36.3146392 111.419852 36.3146392 116.481282 23.24 115.421118 23.24 110.325489"></polygon>
                                <polygon points="46.0692784 101.775777 49.9026804 102.151964 49.9026804 107.144996 46.0692784 106.803008"></polygon>
                                <polygon points="37.7863918 101.023402 42.7492784 101.467987 42.7492784 106.495218 37.7863918 106.050633"></polygon>
                                <polygon points="25.5674227 99.8948401 25.5674227 104.95627 18.1402062 104.306492 18.1402062 99.1766642"></polygon>
                                <polygon points="25.5674227 89.2589978 25.5674227 94.3204275 18.1402062 93.6022517 18.1402062 88.5066231"></polygon>
                                <polygon points="49.628866 91.6871161 53.3938144 92.0633035 53.3938144 97.0563355 49.628866 96.6801482"></polygon>
                                <polygon points="32.6865979 89.9771736 46.6853608 91.3793265 46.6853608 96.4065574 32.6865979 95.0386034"></polygon>
                                <polygon points="48.1571134 81.0854727 55.8239175 81.9404439 55.8239175 86.8992772 48.1571134 86.0785048"></polygon>
                                <polygon points="41.756701 80.4014957 45.2136082 80.7776831 45.2136082 85.7707151 41.756701 85.4287266"></polygon>
                                <polygon points="28.9901031 78.9993429 28.9901031 84.0607726 21.5628866 83.2741991 21.5628866 78.1785705"></polygon>
                                <polygon points="32.6181443 68.8080857 32.6181443 73.8695154 18.1402062 72.2279706 18.1402062 67.0981432"></polygon>
                                <polygon points="37.6152577 69.3894661 41.0721649 69.7998523 41.0721649 74.8270832 37.6152577 74.4508959"></polygon>
                                <polygon points="44.0498969 70.1760396 55.8239175 71.5439936 55.8239175 76.5370257 44.0498969 75.1690717"></polygon>
                                <polygon points="48.1571134 60.1899755 55.8239175 61.1817422 55.8239175 66.1405754 48.1571134 65.2172064"></polygon>
                                <polygon points="41.756701 59.403402 45.2136082 59.847987 45.2136082 64.8410191 41.756701 64.4306329"></polygon>
                                <polygon points="32.6181443 58.2406411 32.6181443 63.3020708 18.4482474 61.5579295 18.4482474 56.428102"></polygon>
                                <polygon points="48.1571134 49.7593264 52.3327835 50.3407068 52.3327835 55.29954 48.1571134 54.7523584"></polygon>
                                <polygon points="41.756701 48.9043551 45.2136082 49.3489402 45.2136082 54.3761711 41.756701 53.931586"></polygon>
                                <polygon points="36.3146392 48.1519804 36.3146392 53.2134102 22.897732 51.43507 22.897732 46.3394414"></polygon>
                                <polygon points="49.628866 39.5338703 52.3327835 39.9100576 52.3327835 44.9030897 49.628866 44.5269023"></polygon>
                                <polygon points="41.756701 38.4053082 48.1571134 39.3286772 48.1571134 44.3217092 41.756701 43.4325392"></polygon>
                                <polygon points="36.3146392 37.6187347 36.3146392 42.6459656 22.897732 40.7992277 22.897732 35.7035991"></polygon>
                                <polygon points="30.3591753 26.16212 30.3591753 31.2235498 18.1402062 29.4452096 18.1402062 24.3153822"></polygon>
                                <polygon points="48.1571134 28.8638292 55.8239175 30.0265901 55.8239175 34.9854233 48.1571134 33.8568612"></polygon>
                                <polygon points="36.6226804 27.1196878 45.2136082 28.4192441 45.2136082 33.446475 36.6226804 32.1469187"></polygon>
                                <polygon points="41.756701 17.4072145 45.2136082 17.9543961 45.2136082 22.9474282 41.756701 22.4344454"></polygon>
                                <polygon points="51.6824742 18.9803616 55.8239175 19.6643386 55.8239175 24.6231718 51.6824742 23.9733937"></polygon>
                                <polygon points="38.5051546 16.8942318 38.5051546 21.9214627 28.8189691 20.4167133 28.8189691 15.3210847"></polygon>
                                <polygon points="30.3591753 4.99303206 30.3591753 10.0544618 18.1402062 8.03672969 18.1402062 2.94110108"></polygon>
                                <polygon points="48.1571134 7.96833199 55.8239175 9.26788828 55.8239175 14.2267215 48.1571134 12.961364"></polygon>
                                <polygon points="41.756701 6.90816764 45.2136082 7.48954809 45.2136082 12.4825802 41.756701 11.9353986"></polygon>
                                <polygon points="43.6391753 175.166508 55.8239175 175.576894 55.8239175 180.535728 43.6391753 180.15954"></polygon>
                                <polygon points="33.4395876 174.82452 40.0795876 175.029713 40.0795876 180.056944 33.4395876 179.851751"></polygon>
                                <polygon points="28.3397938 174.619327 28.3397938 179.714955 18.1402062 179.407166 18.1402062 174.277338"></polygon>
                                <polygon points="48.1571134 164.872655 55.8239175 165.214643 55.8239175 170.173476 48.1571134 169.865687"></polygon>
                                <polygon points="41.756701 164.599064 45.2136082 164.735859 45.2136082 169.76309 41.756701 169.626295"></polygon>
                                <polygon points="36.3146392 164.359672 36.3146392 169.421102 18.1402062 168.702926 18.1402062 163.573098"></polygon>
                            </g>
                        </g>
                    </g>
                    <g transform="translate(302.907216, 150.816927)" id="Path">
                        <g>
                            <polygon fill="#942921" points="30.0169072 105.674446 30.0169072 0.205193098 0.136907216 2.80430568 0.136907216 105.674446"></polygon>
                            <g transform="translate(3.764948, 6.839770)" fill="#FCD089">
                                <polygon points="18.0375258 6.08739525 22.6239175 5.7112079 22.6239175 0.0683976995 18.0375258 0.444585046"></polygon>
                                <polygon points="8.93319588 6.83976995 13.4853608 6.4635826 13.4853608 0.854971243 8.93319588 1.23115859"></polygon>
                                <polygon points="18.0375258 15.252687 22.6239175 14.9106985 22.6239175 9.26788828 18.0375258 9.60987677"></polygon>
                                <polygon points="8.93319588 15.9708628 13.4853608 15.6288743 13.4853608 9.98606412 8.93319588 10.3622515"></polygon>
                                <polygon points="18.0375258 24.4179787 22.6239175 24.0759902 22.6239175 18.43318 18.0375258 18.7751685"></polygon>
                                <polygon points="8.93319588 25.1019557 13.4853608 24.7599672 13.4853608 19.1513558 8.93319588 19.4933443"></polygon>
                                <polygon points="18.0375258 34.4382417 22.6239175 34.0962532 22.6239175 28.453443 18.0375258 28.7954315"></polygon>
                                <polygon points="8.93319588 35.053821 13.4853608 34.7460313 13.4853608 29.1032211 8.93319588 29.4452096"></polygon>
                                <polygon points="18.0375258 43.6035334 22.6239175 43.2957438 22.6239175 37.6529335 18.0375258 37.9607232"></polygon>
                                <polygon points="8.93319588 44.1849138 13.4853608 43.8771242 13.4853608 38.2685128 8.93319588 38.5763025"></polygon>
                                <polygon points="18.0375258 52.7688251 22.6239175 52.4610355 22.6239175 46.8182253 18.0375258 47.1260149"></polygon>
                                <polygon points="8.93319588 53.3160067 13.4853608 53.0424159 13.4853608 47.3996057 8.93319588 47.7073954"></polygon>
                                <polygon points="18.0375258 62.7548892 22.6239175 62.5154973 22.6239175 56.8384882 18.0375258 57.112079"></polygon>
                                <polygon points="8.93319588 63.267872 13.4853608 63.02848 13.4853608 57.3856698 8.93319588 57.6592606"></polygon>
                                <polygon points="0.0684536082 7.55794579 4.58639175 7.21595729 4.58639175 1.60734594 0.0684536082 1.98353328"></polygon>
                                <polygon points="0.0684536082 16.6548398 4.58639175 16.3128513 4.58639175 10.70424 0.0684536082 11.0804273"></polygon>
                                <polygon points="0.0684536082 25.7517338 4.58639175 25.4097453 4.58639175 19.801134 0.0684536082 20.1431225"></polygon>
                                <polygon points="0.0684536082 35.6694003 4.58639175 35.3616106 4.58639175 29.7529993 0.0684536082 30.0949878"></polygon>
                                <polygon points="0.0684536082 44.7662943 4.58639175 44.4585046 4.58639175 38.8840921 0.0684536082 39.1576829"></polygon>
                                <polygon points="0.0684536082 53.8631883 4.58639175 53.5895975 4.58639175 47.9809862 0.0684536082 48.254577"></polygon>
                                <polygon points="0.0684536082 63.7808547 4.58639175 63.5414628 4.58639175 57.9328514 0.0684536082 58.2064422"></polygon>
                            </g>
                        </g>
                        <g transform="translate(29.777320, 0.000000)">
                            <polygon fill="#FCD089" points="42.3043299 105.674446 42.3043299 8.78910438 0.239587629 0.205193098 0.239587629 105.674446"></polygon>
                            <g transform="translate(5.476289, 7.523747)" fill="#A63351">
                                <polygon points="25.8412371 10.464848 32.0020619 11.5934101 32.0020619 6.29258835 25.8412371 5.09562861"></polygon>
                                <polygon points="13.1773196 8.13932623 19.577732 9.30208713 19.577732 3.89866887 13.1773196 2.63331143"></polygon>
                                <polygon points="25.8412371 19.1855547 32.0020619 20.245719 32.0020619 14.9106985 25.8412371 13.8163353"></polygon>
                                <polygon points="13.1773196 17.065226 19.577732 18.1253904 19.577732 12.7219721 13.1773196 11.5592112"></polygon>
                                <polygon points="25.8412371 27.9404602 32.0020619 28.8638292 32.0020619 23.5630075 25.8412371 22.537042"></polygon>
                                <polygon points="13.1773196 25.9911258 19.577732 26.9486936 19.577732 21.5452753 13.1773196 20.485111"></polygon>
                                <polygon points="25.8412371 37.4477405 32.0020619 38.3027117 32.0020619 33.00189 25.8412371 32.078521"></polygon>
                                <polygon points="13.1773196 35.7035991 19.577732 36.5927692 19.577732 31.1551521 13.1773196 30.2317832"></polygon>
                                <polygon points="25.8412371 46.202646 32.0020619 46.9550207 32.0020619 41.6200001 25.8412371 40.7992277"></polygon>
                                <polygon points="13.1773196 44.6294989 19.577732 45.4160724 19.577732 39.9784553 13.1773196 39.1576829"></polygon>
                                <polygon points="25.8412371 54.9233527 32.0020619 55.5731308 32.0020619 50.2723091 25.8412371 49.5541333"></polygon>
                                <polygon points="13.1773196 53.5553987 19.577732 54.2393757 19.577732 48.8017586 13.1773196 48.0493839"></polygon>
                                <polygon points="25.8412371 64.4648317 32.0020619 65.0120133 32.0020619 59.6769928 25.8412371 59.0614135"></polygon>
                                <polygon points="13.1773196 63.3020708 19.577732 63.8834513 19.577732 58.4458342 13.1773196 57.796056"></polygon>
                                <polygon points="0.239587629 5.74540675 6.91381443 6.97656534 6.91381443 1.43635169 0.239587629 0.136795399"></polygon>
                                <polygon points="0.239587629 14.8764996 6.91381443 16.0050617 6.91381443 10.464848 0.239587629 9.26788828"></polygon>
                                <polygon points="0.239587629 23.9733937 6.91381443 24.9993592 6.91381443 19.4591455 0.239587629 18.3647823"></polygon>
                                <polygon points="0.239587629 33.9252589 6.91381443 34.8486279 6.91381443 29.3084142 0.239587629 28.3166476"></polygon>
                                <polygon points="0.239587629 43.0563518 6.91381443 43.8771242 6.91381443 38.3027117 0.239587629 37.4477405"></polygon>
                                <polygon points="0.239587629 52.1532458 6.91381443 52.8714217 6.91381443 47.331208 0.239587629 46.5446345"></polygon>
                                <polygon points="0.239587629 62.1051111 6.91381443 62.7206904 6.91381443 57.1804767 0.239587629 56.4964997"></polygon>
                            </g>
                        </g>
                    </g>
                    <g transform="translate(390.185567, 154.920789)" id="Path">
                        <g transform="translate(44.152577, 0.000000)">
                            <polygon fill="#CC7A5F" points="44.8371134 101.570584 0.171134021 101.570584 0.171134021 0.273590798 44.8371134 11.4908135"></polygon>
                            <g transform="translate(4.107216, 13.337551)" fill="#FCD089">
                                <polygon points="0.0684536082 2.42811833 38.7789691 10.7726377 38.7789691 8.54971243 0.0684536082 0"></polygon>
                                <polygon points="0.0684536082 10.3622515 38.7789691 17.9201973 38.7789691 15.697272 0.0684536082 7.93413314"></polygon>
                                <polygon points="0.0684536082 18.2963846 38.7789691 25.0677568 38.7789691 22.8790305 0.0684536082 15.8340674"></polygon>
                                <polygon points="0.0684536082 26.1963189 38.7789691 32.2153164 38.7789691 30.0265901 0.0684536082 23.7682006"></polygon>
                                <polygon points="0.0684536082 34.130452 38.7789691 39.362876 38.7789691 37.1741497 0.0684536082 31.6681348"></polygon>
                                <polygon points="0.0684536082 42.0303863 38.7789691 46.5104356 38.7789691 44.3217092 0.0684536082 39.602268"></polygon>
                                <polygon points="0.0684536082 49.5541333 38.7789691 53.3160067 38.7789691 51.0930815 0.0684536082 47.1260149"></polygon>
                            </g>
                        </g>
                        <g>
                            <polygon fill="#833038" points="44.6659794 101.570584 0 101.570584 0 11.4908135 44.6659794 0.273590798"></polygon>
                            <g transform="translate(2.395876, 12.995563)" fill="#FCD089">
                                <polygon points="0.171134021 10.9778308 39.0527835 2.59911258 39.0527835 0.170994249 0.171134021 8.75490553"></polygon>
                                <polygon points="0.171134021 18.1253904 39.0527835 10.5332457 39.0527835 8.10512739 0.171134021 15.936664"></polygon>
                                <polygon points="0.171134021 25.3071488 39.0527835 18.4673789 39.0527835 16.0392605 0.171134021 23.0842236"></polygon>
                                <polygon points="0.171134021 32.4547084 39.0527835 26.401512 39.0527835 23.9733937 0.171134021 30.265982"></polygon>
                                <polygon points="0.171134021 39.6364668 39.0527835 34.369844 39.0527835 31.9075268 0.171134021 37.4135416"></polygon>
                                <polygon points="0.171134021 46.7840264 39.0527835 42.3039771 39.0527835 39.8416599 0.171134021 44.5953"></polygon>
                                <polygon points="0.171134021 53.5895975 39.0527835 49.8277241 39.0527835 47.3654069 0.171134021 51.3666723"></polygon>
                            </g>
                        </g>
                    </g>
                    <g transform="translate(0.000000, 120.379951)" id="Path">
                        <g transform="translate(44.837113, 0.000000)">
                            <polygon fill="#CC7A5F" points="45.8296907 136.111422 0.308041237 136.111422 0.308041237 0.239391948 48.3282474 11.9695974"></polygon>
                            <polygon fill="#B56569" points="0.308041237 84.5737554 0.308041237 136.111422 45.8296907 136.111422 47.7121649 42.9537553"></polygon>
                            <g transform="translate(4.107216, 18.125390)" fill="#FCD089">
                                <polygon points="0.376494845 3.62507807 41.7224742 12.1747905 41.7909278 9.02849633 0.410721649 0.205193098"></polygon>
                                <polygon points="0.376494845 14.6371077 41.5513402 22.3660477 41.585567 19.2539524 0.376494845 11.2514216"></polygon>
                                <polygon points="0.342268041 25.5807396 41.3459794 32.4547084 41.414433 29.3768119 0.342268041 22.2292523"></polygon>
                                <polygon points="0.342268041 36.421775 41.1406186 42.4749714 41.2090722 39.3970749 0.342268041 33.1044865"></polygon>
                                <polygon points="0.308041237 47.1602138 40.9694845 52.3926378 41.0037113 49.3489402 0.308041237 43.8771242"></polygon>
                                <polygon points="0.308041237 57.796056 40.7641237 62.2419065 40.8325773 59.1982089 0.308041237 54.5471653"></polygon>
                                <polygon points="0.273814433 67.816319 40.5929897 71.4755959 40.6614433 68.500296 0.273814433 64.6016271"></polygon>
                                <polygon points="0.273814433 77.7681843 40.4218557 80.6750865 40.4560825 77.6997866 0.273814433 74.5534924"></polygon>
                            </g>
                        </g>
                    </g>
                    <g transform="translate(200.226804, 112.856204)" id="Path">
                        <g>
                            <polygon fill="#F5A16C" points="55.1051546 0.307789648 55.1051546 143.635169 91.0775258 143.635169 91.0775258 13.8505341"></polygon>
                            <g>
                                <polygon fill="#A3404B" points="0.239587629 12.1405917 0.239587629 143.635169 55.1051546 143.635169 55.1051546 0.307789648"></polygon>
                                <polygon fill="#833038" points="0.239587629 64.7384225 0.239587629 143.635169 55.1051546 143.635169 55.1051546 29.8555958"></polygon>
                                <g transform="translate(2.053608, 5.471816)" fill="#FCD089">
                                    <polygon points="0.308041237 51.8112573 0.308041237 55.0601481 14.4094845 52.803024 14.4094845 49.4515367"></polygon>
                                    <polygon points="0.308041237 44.9372885 0.308041237 48.2203781 14.4094845 45.8264586 14.4094845 42.5091702"></polygon>
                                    <polygon points="0.308041237 38.0975186 0.308041237 41.3806082 14.4094845 38.8840921 14.4094845 35.5668037"></polygon>
                                    <polygon points="0.308041237 31.2235498 0.308041237 34.5066394 14.4094845 31.9417256 14.4094845 28.5902384"></polygon>
                                    <polygon points="35.6301031 17.5440099 30.5645361 18.5357766 30.5645361 21.8872638 35.6301031 20.929696"></polygon>
                                    <polygon points="38.1628866 17.065226 38.1628866 20.4509121 50.4160825 18.1253904 50.4160825 14.6713065"></polygon>
                                    <polygon points="0.308041237 24.3837799 0.308041237 27.6668694 14.4094845 24.9651603 14.4094845 21.6478719"></polygon>
                                    <polygon points="0.308041237 17.5440099 0.308041237 20.8270995 14.4094845 18.0227938 14.4094845 14.7055054"></polygon>
                                    <polygon points="35.6301031 10.4306492 30.5645361 11.4566147 30.5645361 14.8423008 35.6301031 13.8505341"></polygon>
                                    <polygon points="38.1628866 9.91766642 38.1628866 13.3375514 50.4160825 10.9094331 50.4160825 7.45534924"></polygon>
                                    <polygon points="0.308041237 10.6700411 0.308041237 13.9531307 14.4094845 11.0804273 14.4094845 7.72894004"></polygon>
                                    <polygon points="35.6301031 3.31728842 30.5645361 4.37745277 30.5645361 7.76313889 35.6301031 6.7371734"></polygon>
                                    <polygon points="38.1628866 2.80430568 38.1628866 6.22419065 50.4160825 3.69347577 50.4160825 0.239391948"></polygon>
                                    <polygon points="38.1628866 88.4382254 38.1628866 91.8239115 50.4160825 90.3875598 50.4160825 86.933476"></polygon>
                                    <polygon points="0.308041237 86.2153002 0.308041237 89.4983897 25.2251546 86.3520956 25.2251546 83.0006083"></polygon>
                                    <polygon points="35.6301031 81.6326543 30.5645361 82.2824324 30.5645361 85.6681186 35.6301031 85.0183404"></polygon>
                                    <polygon points="38.1628866 81.3248647 38.1628866 84.7105508 50.4160825 83.1716025 50.4160825 79.7175187"></polygon>
                                    <polygon points="0.308041237 79.3413314 0.308041237 82.6244209 25.2251546 79.3071325 25.2251546 75.9556452"></polygon>
                                    <polygon points="35.6301031 74.5192936 30.5645361 75.2374694 30.5645361 78.5889567 35.6301031 77.9391785"></polygon>
                                    <polygon points="38.1628866 74.1773051 38.1628866 77.59719 50.4160825 75.9556452 50.4160825 72.5015614"></polygon>
                                    <polygon points="0.308041237 72.5015614 0.308041237 75.784651 25.2251546 72.2963683 25.2251546 68.9106822"></polygon>
                                    <polygon points="38.1628866 67.0639443 38.1628866 70.4838293 50.4160825 68.739688 50.4160825 65.2856041"></polygon>
                                    <polygon points="35.6301031 67.4401317 30.5645361 68.1583075 30.5645361 71.5439936 35.6301031 70.8258178"></polygon>
                                    <polygon points="0.308041237 65.6617915 0.308041237 68.9106822 14.4094845 66.8587512 14.4094845 63.5072639"></polygon>
                                    <polygon points="35.6301031 60.3267709 30.5645361 61.0791456 30.5645361 64.4648317 35.6301031 63.712457"></polygon>
                                    <polygon points="38.1628866 59.9505836 38.1628866 63.3362697 50.4160825 61.5237307 50.4160825 58.1038457"></polygon>
                                    <polygon points="0.308041237 58.7878227 0.308041237 62.0709123 14.4094845 59.8821859 14.4094845 56.5648974"></polygon>
                                    <polygon points="35.6301031 53.2134102 30.5645361 53.9999837 30.5645361 57.3856698 35.6301031 56.5990963"></polygon>
                                    <polygon points="38.1628866 52.803024 38.1628866 56.222909 50.4160825 54.3419722 50.4160825 50.8878884"></polygon>
                                </g>
                            </g>
                        </g>
                        <g transform="translate(56.474227, 11.285620)" fill="#A3404B">
                            <g>
                                <polygon points="0.308041237 3.83027117 32.857732 14.6371077 32.857732 11.2172227 0.308041237 0.0341988497"></polygon>
                                <polygon points="0.308041237 12.3457848 32.857732 22.3318489 32.857732 18.9119639 0.308041237 8.54971243"></polygon>
                                <polygon points="0.308041237 20.8270995 32.857732 30.0607889 32.857732 26.6409039 0.308041237 17.065226"></polygon>
                                <polygon points="0.308041237 29.3426131 32.857732 37.7897289 32.857732 34.3356451 0.308041237 25.5807396"></polygon>
                                <polygon points="0.308041237 37.8581266 32.857732 45.4844701 32.857732 42.0645852 0.308041237 34.0962532"></polygon>
                                <polygon points="0.308041237 46.3736402 32.857732 53.2134102 32.857732 49.7935252 0.308041237 42.6117668"></polygon>
                            </g>
                            <g transform="translate(0.000000, 49.246344)">
                                <polygon points="0.308041237 4.03546427 32.857732 10.2254561 32.857732 6.8055711 0.308041237 0.273590798"></polygon>
                                <polygon points="0.308041237 12.5509778 32.857732 17.9201973 32.857732 14.5003123 0.308041237 8.75490553"></polygon>
                                <polygon points="0.308041237 21.0664914 32.857732 25.6491373 32.857732 22.2292523 0.308041237 17.2704191"></polygon>
                                <polygon points="0.308041237 29.5478062 32.857732 33.3780773 32.857732 29.9581924 0.308041237 25.7859327"></polygon>
                                <polygon points="0.308041237 38.0633197 32.857732 41.0728185 32.857732 37.6529335 0.308041237 34.3014463"></polygon>
                                <polygon points="0.308041237 46.5788333 32.857732 48.8017586 32.857732 45.3818736 0.308041237 42.8169599"></polygon>
                            </g>
                        </g>
                    </g>
                    <g transform="translate(61.950515, 180.911915)" id="Path">
                        <g transform="translate(57.501031, 0.000000)">
                            <polygon fill="#C7837C" points="57.9459794 75.5794579 57.9459794 10.9778308 0.239587629 0.273590798 0.239587629 75.5794579"></polygon>
                            <g transform="translate(7.187629, 7.865735)" fill="#FCD089">
                                <polygon points="5.64742268 0.170994249 5.64742268 3.28308957 38.5393814 8.85750208 38.5393814 5.916401"></polygon>
                                <polygon points="7.35876289 26.7093016 7.35876289 29.8555958 45.1793814 34.3014463 45.1793814 31.394544"></polygon>
                                <polygon points="7.35876289 20.1773213 7.35876289 23.3236155 45.1793814 28.2482499 45.1793814 25.3413476"></polygon>
                                <polygon points="13.9645361 14.6371077 13.9645361 17.7150042 45.1793814 22.1950535 45.1793814 19.3223501"></polygon>
                                <polygon points="0.239587629 5.9847987 0.239587629 9.13109288 19.8173196 12.2089894 19.8173196 9.13109288"></polygon>
                            </g>
                        </g>
                        <g>
                            <polygon fill="#A3404B" points="57.7406186 75.5794579 57.7406186 0.273590798 0.0684536082 9.06269518 0.0684536082 75.5794579"></polygon>
                            <polygon fill="#833038" points="57.7406186 75.5794579 57.7406186 12.9271652 0.0684536082 20.245719 0.0684536082 75.5794579"></polygon>
                            <g transform="translate(4.791753, 7.181758)" fill="#FCD089">
                                <polygon points="0.308041237 35.7719968 0.308041237 38.7472967 39.0870103 35.2932129 39.0870103 32.1469187"></polygon>
                                <polygon points="0.308041237 29.6162039 0.308041237 32.5573049 39.0870103 28.7270338 39.0870103 25.5807396"></polygon>
                                <polygon points="15.8127835 21.6820707 15.8127835 24.6915695 39.0870103 22.1608546 39.0870103 19.0145604"></polygon>
                                <polygon points="0.308041237 17.304618 0.308041237 20.245719 45.1793814 14.8764996 45.1793814 11.6960066"></polygon>
                                <polygon points="5.85278351 10.3622515 5.85278351 13.3375514 45.1793814 8.24192278 45.1793814 5.06142976"></polygon>
                                <polygon points="14.2383505 2.94110108 14.2383505 5.95059985 33.6791753 3.21469187 33.6791753 0.102596549"></polygon>
                            </g>
                        </g>
                    </g>
                    <g transform="translate(269.707216, 180.569927)" id="Path">
                        <polygon fill="#B56569" points="32.9604124 75.9214464 32.9604124 0.0683976995 0.239587629 14.4661134 0.239587629 75.9214464"></polygon>
                        <g transform="translate(2.738144, 0.000000)">
                            <polygon fill="#F5A16C" points="94.8424742 75.9214464 94.8424742 15.6630732 30.3249485 0.0683976995 30.3249485 75.9214464"></polygon>
                            <g transform="translate(37.991753, 14.363517)" fill="#FCD089">
                                <path d="M5.37360825,15.2868858 L5.37360825,1.26535744 L0.0684536082,0.170994249 L0.0684536082,14.2267215 C1.84824742,14.6371077 3.59381443,14.9448973 5.37360825,15.2868858 Z"></path>
                                <path d="M5.37360825,36.9689566 L5.37360825,18.7067708 C3.59381443,18.3989812 1.84824742,18.0911915 0.0684536082,17.7150042 L0.0684536082,36.4901727 C1.84824742,36.6269681 3.59381443,36.7979623 5.37360825,36.9689566 Z"></path>
                                <path d="M20.9125773,39.0208875 C20.9468041,39.0208875 20.9468041,39.0208875 20.9810309,39.0208875 L20.9810309,21.4426788 C19.577732,21.169088 18.174433,20.929696 16.771134,20.6561052 C16.3946392,20.5877075 16.0523711,20.5193098 15.6758763,20.4509121 L15.6758763,38.2685128 C17.4556701,38.5079048 19.2012371,38.7472967 20.9125773,39.0208875 Z"></path>
                                <path d="M18.3797938,17.4756122 C19.2354639,17.6466065 20.1253608,17.8176007 20.9810309,17.9543961 L20.9810309,4.48004931 L15.6758763,3.38568612 L15.6758763,16.9626295 C16.6,17.1678226 17.4898969,17.304618 18.3797938,17.4756122 Z"></path>
                                <path d="M36.6226804,41.2438128 L36.6226804,24.3837799 C34.8428866,24.0417914 33.0973196,23.6998029 31.3175258,23.3578144 L31.3175258,40.4572392 C33.0973196,40.73083 34.8428866,41.0044208 36.6226804,41.2438128 Z"></path>
                                <path d="M36.6226804,20.929696 L36.6226804,7.76313889 L31.3175258,6.6687757 L31.3175258,19.9379294 C33.0973196,20.245719 34.8428866,20.5877075 36.6226804,20.929696 Z"></path>
                                <path d="M52.2301031,23.9391948 L52.2301031,11.0120296 L46.9249485,9.91766642 L46.9249485,22.9132293 C48.7047423,23.2552178 50.4845361,23.5972063 52.2301031,23.9391948 Z"></path>
                            </g>
                            <g transform="translate(0.000000, 14.363517)" fill="#FCD089">
                                <polygon points="26.1150515 61.5579295 26.1150515 0.170994249 23.4795876 1.23115859 23.4795876 61.5579295"></polygon>
                                <polygon points="18.3113402 61.5579295 18.3113402 3.28308957 15.6758763 4.34325392 15.6758763 61.5579295"></polygon>
                                <polygon points="10.5076289 61.5579295 10.5076289 6.3951849 7.87216495 7.45534924 7.87216495 61.5579295"></polygon>
                                <polygon points="2.70391753 61.5579295 2.70391753 9.50728022 0.0342268041 10.5674446 0.0342268041 61.5579295"></polygon>
                            </g>
                        </g>
                    </g>
                </g>
            </g>
        </g>
    </g>
</svg>