<?xml version="1.0" encoding="UTF-8"?>
<svg viewBox="0 0 118 155" version="1.1" xmlns="http://www.w3.org/2000/svg" xmlns:xlink="http://www.w3.org/1999/xlink">
    <!-- Generator: Sketch 53.2 (72643) - https://sketchapp.com -->
    <title>illustration</title>
    <desc>Created with Sketch.</desc>
    <g id="Page-1" stroke="none" stroke-width="1" fill="none" fill-rule="evenodd">
        <g id="Home" transform="translate(-128.000000, -300.000000)" fill-rule="nonzero">
            <g id="illustration" transform="translate(128.000000, 300.000000)">
                <path d="M93.4329094,78.371421 L93.4329094,25.3818907 C93.4329094,19.1059162 88.3072496,14 82.007007,14 L34.8675424,14 C28.5672998,14 23.44164,19.1059162 23.44164,25.3818907 L23.44164,70.9637071 L20.282378,70.9637071 C13.9821354,70.9637071 8.8564756,76.0696233 8.8564756,82.3455978 L8.8564756,82.8513331 C8.8564756,85.0723194 9.50051563,87.1449617 10.6095899,88.8985317 C7.81405244,90.9753473 6,94.2939272 6,98.0271874 L6,98.5329227 C6,102.266183 7.81405244,105.584763 10.6095899,107.661958 C9.50089649,109.415148 8.8564756,111.48817 8.8564756,113.708777 L8.8564756,114.214512 C8.8564756,120.490487 13.9821354,125.596403 20.282378,125.596403 L23.4523042,125.596403 C23.6149329,130.009162 26.3099224,133.786812 30.1307441,135.528241 C30.485328,139.513041 31.6861903,146.981079 35.755335,152.804433 C36.4953526,153.863708 37.6805996,154.431285 38.8848897,154.431285 C39.6359523,154.431285 40.3942514,154.210476 41.0573346,153.751027 C42.7837884,152.554032 43.2092129,150.189254 42.0075888,148.469451 C39.4184793,144.763886 38.3501574,139.892058 37.9091176,136.556405 L69.4004281,136.556405 C69.5044038,136.713096 69.6076178,136.866372 69.7104509,137.015095 C70.9075046,138.738693 73.2799028,139.168928 75.0094036,137.977244 C76.7392852,136.784802 77.171946,134.421921 75.9752732,132.698703 C71.4357621,126.161704 72.6286264,119.084065 79.6243255,111.068178 C80.7924336,110.062019 84.3119924,106.616721 83.8968513,101.950146 C83.5818773,98.4054455 81.1896742,95.4268048 76.7865122,93.0961729 C76.6554952,93.0267434 76.5206696,92.9652812 76.3820353,92.9117863 C76.2045529,92.8427362 72.0390498,91.1745304 72.6720448,86.9533665 C73.0559551,84.3973733 78.2962548,83.8138617 81.7244064,84.0445347 C90.5436796,84.6398076 96.8435413,87.0049644 99.9433886,90.883154 C102.134115,93.6242927 102.840997,97.190239 102.104027,101.784729 C101.94673,102.765468 101.790195,103.773525 101.629852,104.805103 C99.437602,118.915992 96.7094774,136.47787 82.6365743,148.30631 C81.0285689,149.657341 80.8251879,152.050952 82.1818233,153.652384 C82.9347903,154.542069 84.0111103,155 85.0942859,155 C85.9615119,155 86.8336891,154.706727 87.5481888,154.105763 C103.801154,140.445976 106.897193,120.517424 109.157236,105.965677 C109.315675,104.946618 109.470306,103.950703 109.625698,102.981724 C110.703542,96.2580622 109.450882,90.5974685 105.902378,86.157393 C103.069135,82.6107958 98.8941099,80.0081368 93.4329094,78.371421 Z M34.8675424,21.5879271 L82.0066262,21.5879271 C84.106707,21.5879271 85.8152603,23.2898992 85.8152603,25.3818907 L85.8152603,28.5198779 L31.0589083,28.5198779 L31.0589083,25.3818907 C31.0589083,23.2898992 32.7678424,21.5879271 34.8675424,21.5879271 Z M17.4262833,102.326507 C15.3262024,102.326507 13.6176491,100.624535 13.6176491,98.5325433 L13.6176491,98.026808 C13.6176491,95.9348165 15.3262024,94.2328444 17.4262833,94.2328444 L20.2827589,94.2328444 L23.1392345,94.2328444 L23.1392345,102.326507 L20.2827589,102.326507 L17.4262833,102.326507 Z M16.4741247,82.3452184 C16.4741247,80.2532269 18.182678,78.5512548 20.2827589,78.5512548 L23.1392345,78.5512548 L23.1392345,86.6449173 L20.2827589,86.6449173 C18.182678,86.6449173 16.4741247,84.9429452 16.4741247,82.8509537 L16.4741247,82.3452184 Z M23.1392345,118.008096 L20.2827589,118.008096 C18.182678,118.008096 16.4741247,116.306124 16.4741247,114.214133 L16.4741247,113.708398 C16.4741247,111.616406 18.182678,109.914434 20.2827589,109.914434 L23.1392345,109.914434 L23.1392345,118.008096 Z M34.8675424,128.968098 C32.7674615,128.968098 31.0589083,127.266126 31.0589083,125.174135 L31.0589083,122.036527 L65.8915334,122.036527 C65.5674187,124.566342 65.725477,126.887868 66.1699446,128.968098 L34.8675424,128.968098 Z M65.1389473,85.8314915 C63.9495109,93.7631517 69.8723178,98.4213802 73.3758804,99.8843325 C75.4477773,101.010381 76.25178,102.027163 76.3089095,102.611434 C76.3888908,103.427136 75.3361844,104.767543 74.6034032,105.362057 C74.419827,105.505848 74.2492002,105.665954 74.0949505,105.840855 C71.4342387,108.851745 69.5314451,111.729466 68.2174663,114.4486 L31.0589083,114.4486 L31.0589083,36.1074257 L85.8152603,36.1074257 L85.8152603,76.8196899 C84.6604824,76.6751399 83.4729503,76.5563888 82.2393337,76.4729216 C72.6484313,75.8283272 66.1021509,79.4124846 65.1389473,85.8314915 Z" id="Shape" fill="#FFFFFF"></path>
                <path d="M112.340052,79.7427572 C111.695355,78.8917699 110.515784,78.7512507 109.706913,79.4290491 C108.897293,80.1060604 108.763106,81.3439676 109.408178,82.1941677 C112.278581,85.9807074 115.378377,92.6154176 113.841223,102.721385 C113.6778,103.794763 114.374223,104.803588 115.396368,104.975202 C115.496446,104.992128 115.595775,105 115.693978,105 C116.598804,105 117.395305,104.31 117.542611,103.341716 C119.294539,91.8191421 115.68086,84.1484473 112.340052,79.7427572 Z" id="Path" fill="#C97CBE"></path>
                <path d="M82.8181818,7.81818182 C90.8385455,7.81818182 97.3636364,14.6695273 97.3636364,23.0909091 C97.3636364,24.1454909 98.1774545,25 99.1818182,25 C100.186182,25 101,24.1454909 101,23.0909091 C101,12.5641818 92.8436364,4 82.8181818,4 C81.8138182,4 81,4.85450909 81,5.90909091 C81,6.96367273 81.8138182,7.81818182 82.8181818,7.81818182 Z" id="Path" fill="#C97CBE"></path>
                <path d="M91.3236228,3.99265329 C95.4035162,5.25957582 98.7717793,8.47870526 100.564367,12.82453 C100.869918,13.5646859 101.519933,14 102.198774,14 C102.45316,14 102.711869,13.9390316 102.957967,13.8097787 C103.860206,13.3362578 104.251152,12.1274584 103.83138,11.1096933 C101.591997,5.68025751 97.3820285,1.65797153 92.2802701,0.0740135259 C91.3203799,-0.225544353 90.329142,0.411371788 90.0653884,1.49376342 C89.8005539,2.57574859 90.364093,3.69472123 91.3236228,3.99265329 Z" id="Path" fill="#C97CBE"></path>
                <path d="M20.28272,130.080442 C12.5860836,129.405712 6.55660215,122.531953 6.55660215,114.430878 L6.55660215,113.907353 C6.55660215,112.418864 6.76003252,110.935873 7.16127364,109.499618 L7.42914237,108.541329 L6.84882257,107.749955 C4.81938918,104.983092 3.74679036,101.679745 3.74679036,98.1973075 L3.74679036,97.6737833 C3.74679036,94.1909532 4.81938918,90.8876058 6.84882257,88.1211359 L7.42914237,87.3297621 L7.16127364,86.371866 C6.76003252,84.9360037 6.55660215,83.4526197 6.55660215,81.96413 L6.55660215,81.4406059 C6.55660215,73.7279516 12.0387323,67.0493853 19.3082773,65.9061152 C20.3310488,65.745484 21.0361243,64.7455646 20.8825212,63.6725953 C20.7292928,62.6004115 19.7807003,61.860094 18.7519346,62.0222962 C9.6635047,63.4514819 2.80981179,71.7995917 2.80981179,81.4402131 L2.80981179,81.9637373 C2.80981179,83.4981777 2.98252155,85.0271197 3.32382002,86.5222859 C1.14602857,89.8114946 0,93.6462209 0,97.6733906 L0,98.1969148 C0,102.224084 1.14640321,106.058811 3.32382002,109.348019 C2.98252155,110.842793 2.80981179,112.371735 2.80981179,113.906568 L2.80981179,114.430092 C2.80981179,124.556927 10.3476002,133.150108 19.9706436,133.992931 C20.0238427,133.997644 20.0762925,134 20.1287424,134 C21.0923205,134 21.9116616,133.224729 21.9933335,132.199674 C22.0798757,131.120421 21.3137337,130.170772 20.28272,130.080442 Z" id="Path" fill="#C97CBE"></path>
            </g>
        </g>
    </g>
</svg>