<?xml version="1.0" encoding="UTF-8"?>
<svg width="375px" height="812px" viewBox="0 0 375 812" version="1.1" xmlns="http://www.w3.org/2000/svg" xmlns:xlink="http://www.w3.org/1999/xlink">
    <!-- Generator: Sketch 53.2 (72643) - https://sketchapp.com -->
    <title>Loading</title>
    <desc>Created with Sketch.</desc>
    <g id="Loading" stroke="none" stroke-width="1" fill="none" fill-rule="evenodd">
        <rect fill="#6E46B8" x="0" y="0" width="375" height="812"></rect>
        <g id="message-bottom" transform="translate(25.000000, 545.000000)" fill="#FFFFFF">
            <text font-family="Averta-Regular, Averta" font-size="15" font-weight="normal" line-spacing="22">
                <tspan x="55.5957031" y="67">We are fetching your location’s</tspan>
                <tspan x="107.165527" y="89"> air quality data </tspan>
            </text>
            <text id="shake" font-family="Averta-Semibold, Averta" font-size="22" font-weight="500" line-spacing="32">
                <tspan x="147.71875" y="21">. . .</tspan>
            </text>
        </g>
        <g id="illustration" transform="translate(145.000000, 332.000000)" fill="#FFFFFF" fill-rule="nonzero">
            <path d="M68.1283066,57 L3.95986435,57 C1.77283919,57 0,58.7339185 0,60.8726093 C0,63.0111566 1.77269242,64.7452187 3.95986435,64.7452187 L68.1283066,64.7452187 C73.0643407,64.7452187 77.0802713,68.6723718 77.0802713,73.499354 C77.0802713,78.3266232 73.0646342,82.2537763 68.1283066,82.2537763 C68.0785515,82.2537763 68.0831014,82.2529151 68.0461152,82.2543505 C67.7823689,82.2517668 64.4879614,82.177415 62.3705054,80.1208269 C61.0117054,78.8012977 60.322325,76.7869093 60.322325,74.1337844 C60.322325,71.99495 58.5497793,70.260888 56.3627542,70.260888 C54.175729,70.260888 52.4028898,71.9948065 52.4028898,74.1337844 C52.4028898,78.9778474 53.9090473,82.8705518 56.8802665,85.7035277 C61.1364602,89.7623036 66.7736162,90.0002868 68.0339333,89.9999997 C68.0869174,89.9999997 68.1318291,89.9997127 68.1688153,89.9991385 C77.4535083,89.9776081 85,82.5841969 85,73.499641 C85,64.4015928 77.4316395,57 68.1283066,57 Z" id="Path"></path>
            <path d="M4.00476132,33 L34.9374606,33 C44.345681,33 52,25.5981416 52,16.5002633 C52,7.41515964 44.368243,0.0214828196 34.9779832,0.000813652601 C34.0419556,-0.011817505 28.0450556,0.0688496607 23.5611479,4.29641199 C20.5565378,7.12966677 19.0330067,11.0223599 19.0330067,15.8661218 C19.0330067,18.0049499 20.8257979,19.7390069 23.037768,19.7390069 C25.2497381,19.7390069 27.0422325,18.0050935 27.0422325,15.8661218 C27.0422325,13.2132916 27.739429,11.198909 29.1136351,9.87938366 C31.2550989,7.82280154 34.5868584,7.74816288 34.8541888,7.74557924 C34.8915943,7.74672753 34.8865476,7.74615338 34.9373121,7.74615338 C39.9290141,7.74615338 43.9904774,11.6732951 43.9904774,16.5002633 C43.9904774,21.3275185 39.929311,25.2546603 34.9373121,25.2546603 L4.00476132,25.2546603 C1.79293966,25.2546603 0,26.9885737 0,29.1275454 C0,31.2665172 1.79293966,33 4.00476132,33 Z" id="Path"></path>
            <path d="M3.95987119,49 L68.1284243,49 C77.4317732,49 85,41.5981632 85,32.5003113 C85,23.4158083 77.4534953,16.0224401 68.1687862,16.0009098 C67.2541117,15.9874174 61.3150388,16.0677973 56.8802179,20.2964956 C53.9089936,23.129455 52.4028335,27.0221368 52.4028335,31.8658846 C52.4028335,34.0047065 54.175529,35.7384714 56.3627047,35.7384714 C58.5497337,35.7384714 60.3222824,34.004563 60.3222824,31.8658846 C60.3222824,29.2130621 61.0116639,27.1986854 62.3704663,25.8791639 C64.4882195,23.8223007 67.7826327,23.7482364 68.046086,23.7456528 C68.0830722,23.7468011 68.0783755,23.7462269 68.1282775,23.7462269 C73.0643201,23.7462269 77.0802576,27.6733572 77.0802576,32.5003113 C77.0802576,37.3275525 73.0646136,41.2546828 68.1282775,41.2546828 L3.95987119,41.2546828 C1.77284226,41.2546828 0,42.9885912 0,45.1272696 C0,47.2660916 1.77284226,49 3.95987119,49 Z" id="Path"></path>
        </g>
        <text id="header-message" font-family="Averta-Semibold, Averta" font-size="20" font-weight="500" line-spacing="32">
            <tspan x="172.182617" y="149" fill="#C97CBE">Hi !</tspan>
            <tspan x="202.817383" y="149" font-family="Averta-Light, Averta" font-weight="300" fill="#BE2EDD"> </tspan>
            <tspan x="88.3886719" y="181" font-family="Averta-Regular, Averta" font-weight="normal" fill="#FFFFFF">Welcome to Oro app.</tspan>
        </text>
    </g>
</svg>