<?xml version="1.0" encoding="UTF-8"?>
<svg width="52px" height="69px" viewBox="0 0 52 69" version="1.1" xmlns="http://www.w3.org/2000/svg" xmlns:xlink="http://www.w3.org/1999/xlink">
    <!-- Generator: Sketch 53.2 (72643) - https://sketchapp.com -->
    <title>illustration</title>
    <desc>Created with Sketch.</desc>
    <g id="Page-1" stroke="none" stroke-width="1" fill="none" fill-rule="evenodd">
        <g id="moderate" transform="translate(-161.000000, -703.000000)" fill="#FFFFFF" fill-rule="nonzero">
            <g id="illustration" transform="translate(161.000000, 703.000000)">
                <path d="M41.6722484,34.7616987 L41.6722484,11.0855256 C41.6722484,8.2813668 39.4051296,6 36.6184839,6 L15.7683361,6 C12.9816903,6 10.7145715,8.2813668 10.7145715,11.0855256 L10.7145715,31.4518691 L9.31720565,31.4518691 C6.53055989,31.4518691 4.26344113,33.7332359 4.26344113,36.5373948 L4.26344113,36.7633616 C4.26344113,37.7557172 4.54830499,38.6817914 5.03885707,39.4653014 C3.80236935,40.3932403 3,41.87601 3,43.5440624 L3,43.7700293 C3,45.4380817 3.80236935,46.9208515 5.03885707,47.8489599 C4.54847345,48.6323004 4.26344113,49.5585441 4.26344113,50.5507301 L4.26344113,50.776697 C4.26344113,53.5808558 6.53055989,55.8622226 9.31720565,55.8622226 L10.7192884,55.8622226 C10.7912203,57.8338809 11.9832349,59.5217669 13.6732137,60.2998523 C13.8300489,62.0802948 14.3611996,65.4170777 16.1610136,68.0190021 C16.488329,68.492295 17.0125729,68.7458932 17.5452397,68.7458932 C17.8774405,68.7458932 18.212842,68.647234 18.5061288,68.4419483 C19.2697526,67.9071205 19.4579211,66.8505178 18.9264335,66.0820949 C17.7812505,64.4264173 17.3087235,62.2496428 17.1136482,60.7592448 L31.042497,60.7592448 C31.0884863,60.8292555 31.1341386,60.8977406 31.1796225,60.9641914 C31.7090886,61.7343095 32.7584185,61.9265424 33.52339,61.3940879 C34.28853,60.8612943 34.4798992,59.8055392 33.9506016,59.0355906 C31.9427409,56.1148037 32.470354,52.9524544 35.5646055,49.3708882 C36.0812687,48.9213277 37.6379966,47.3819391 37.4543765,45.2968736 C37.3150611,43.7130714 36.2569713,42.3821894 34.3094189,41.3408432 C34.251469,41.3098215 34.1918346,41.2823597 34.1305156,41.2584577 C34.0520138,41.2276055 32.2095797,40.482237 32.4895583,38.596185 C32.6593648,37.4541455 34.9771896,37.1934276 36.4934874,37.2964942 C40.3943198,37.5624672 43.1807971,38.6192394 44.5518834,40.3520475 C45.5208585,41.5768116 45.8335181,43.1701068 45.5075503,45.222964 C45.4379768,45.6611668 45.3687402,46.1115748 45.2978191,46.572493 C44.3281701,52.8773581 43.1214996,60.7241546 36.8969463,66.0092024 C36.1857132,66.6128543 36.0957562,67.6823403 36.6958065,68.3978738 C37.0288496,68.7953924 37.5049142,69 37.9840111,69 C38.3675918,69 38.7533625,68.868963 39.0693912,68.6004472 C46.2582028,62.4971384 47.6276045,53.5928916 48.6272391,47.0910471 C48.697318,46.635723 48.7657123,46.1907395 48.8344435,45.7577918 C49.3111819,42.7536022 48.7571209,40.2244008 47.1875901,38.2405373 C45.9344249,36.6558875 44.0877794,35.4929973 41.6722484,34.7616987 Z M15.7683361,9.39035042 L36.6183154,9.39035042 C37.5471973,9.39035042 38.3029036,10.150806 38.3029036,11.0855256 L38.3029036,12.487605 L14.0837479,12.487605 L14.0837479,11.0855256 C14.0837479,10.150806 14.8396226,9.39035042 15.7683361,9.39035042 Z M8.05393298,45.465035 C7.12505106,45.465035 6.36934481,44.7045794 6.36934481,43.7698598 L6.36934481,43.5438929 C6.36934481,42.6091733 7.12505106,41.8487177 8.05393298,41.8487177 L9.31737411,41.8487177 L10.5808152,41.8487177 L10.5808152,45.465035 L9.31737411,45.465035 L8.05393298,45.465035 Z M7.63278594,36.5372252 C7.63278594,35.6025056 8.38849219,34.84205 9.31737411,34.84205 L10.5808152,34.84205 L10.5808152,38.4583673 L9.31737411,38.4583673 C8.38849219,38.4583673 7.63278594,37.6979117 7.63278594,36.7631921 L7.63278594,36.5372252 Z M10.5808152,52.4717027 L9.31737411,52.4717027 C8.38849219,52.4717027 7.63278594,51.7112471 7.63278594,50.7765275 L7.63278594,50.5505606 C7.63278594,49.615841 8.38849219,48.8553854 9.31737411,48.8553854 L10.5808152,48.8553854 L10.5808152,52.4717027 Z M15.7683361,57.3687248 C14.8394541,57.3687248 14.0837479,56.6082692 14.0837479,55.6735496 L14.0837479,54.2716397 L29.4904859,54.2716397 C29.3471275,55.4019825 29.4170379,56.4392603 29.6136293,57.3687248 L15.7683361,57.3687248 Z M29.1576113,38.0949217 C28.6315144,41.638855 31.2512175,43.7201912 32.8008702,44.3738507 C33.7172861,44.8769787 34.0729027,45.3312857 34.0981715,45.5923427 C34.1335479,45.9568053 33.6679277,46.5557107 33.3438129,46.8213447 C33.2626158,46.8855918 33.1871462,46.9571282 33.1189204,47.0352758 C31.9420671,48.3805668 31.1004469,49.6663572 30.5192639,50.8812893 L14.0837479,50.8812893 L14.0837479,15.8777859 L38.3029036,15.8777859 L38.3029036,34.0683721 C37.7921365,34.0037859 37.2668819,33.9507269 36.7212438,33.9134331 C32.4791138,33.6254228 29.5836437,35.2268548 29.1576113,38.0949217 Z" id="Shape"></path>
                <path d="M49.4844678,35.342811 C49.1979356,34.9500476 48.6736816,34.8851926 48.3141837,35.1980227 C47.9543525,35.5104894 47.8947139,36.0818312 48.1814126,36.4742313 C49.4571473,38.2218649 50.834834,41.2840389 50.1516546,45.9483315 C50.0790221,46.4437366 50.3885435,46.9093483 50.8428303,46.988555 C50.8873094,46.9963667 50.9314553,47 50.9751015,47 C51.3772461,47 51.7312466,46.6815383 51.7967159,46.2346382 C52.5753505,40.9165271 50.9692709,37.3762064 49.4844678,35.342811 Z" id="Path"></path>
                <path d="M36.8181818,3.63636364 C40.4273455,3.63636364 43.3636364,6.57265455 43.3636364,10.1818182 C43.3636364,10.6337818 43.7298545,11 44.1818182,11 C44.6337818,11 45,10.6337818 45,10.1818182 C45,5.67036364 41.3296364,2 36.8181818,2 C36.3662182,2 36,2.36621818 36,2.81818182 C36,3.27014545 36.3662182,3.63636364 36.8181818,3.63636364 Z" id="Path"></path>
                <path d="M40.5672669,1.71113712 C42.3157926,2.25410392 43.759334,3.63373083 44.5275858,5.49622715 C44.6585361,5.81343682 44.9371142,6 45.2280462,6 C45.3370685,6 45.4479438,5.9738707 45.5534144,5.91847659 C45.9400882,5.71553905 46.1076366,5.19748218 45.9277344,4.76129711 C44.9679987,2.43439608 43.1637265,0.710559229 40.9772586,0.0317200825 C40.5658771,-0.0966618654 40.1410609,0.176302195 40.0280236,0.640184321 C39.9145231,1.10389225 40.1560398,1.58345196 40.5672669,1.71113712 Z" id="Path"></path>
                <path d="M9.2194182,58.257974 C5.72094709,57.9580942 2.9802737,54.9030903 2.9802737,51.3026123 L2.9802737,51.0699349 C2.9802737,50.4083839 3.07274205,49.7492767 3.25512438,49.1109411 L3.37688289,48.685035 L3.11310117,48.3333133 C2.19063144,47.1035965 1.70308653,45.6354422 1.70308653,44.0876922 L1.70308653,43.8550148 C1.70308653,42.3070903 2.19063144,40.8389359 3.11310117,39.6093937 L3.37688289,39.2576721 L3.25512438,38.8319404 C3.07274205,38.1937794 2.9802737,37.5344976 2.9802737,36.8729467 L2.9802737,36.6402693 C2.9802737,33.2124229 5.47215103,30.2441712 8.77648969,29.7360512 C9.24138582,29.6646596 9.56187466,29.2202509 9.49205509,28.7433757 C9.42240582,28.2668495 8.99122743,27.9378196 8.52360663,28.0099094 C4.39250214,28.6451031 1.27718718,32.3553741 1.27718718,36.6400947 L1.27718718,36.8727721 C1.27718718,37.5547456 1.35569161,38.2342754 1.51082728,38.8987938 C0.520922076,40.3606643 0,42.0649871 0,43.8548402 L0,44.0875177 C0,45.8773708 0.521092368,47.5816937 1.51082728,49.0435642 C1.35569161,49.7079079 1.27718718,50.3874377 1.27718718,51.0695858 L1.27718718,51.3022632 C1.27718718,55.8030789 4.70345464,59.6222701 9.07756528,59.9968581 C9.10174669,59.9989527 9.12558752,60 9.14942835,60 C9.5874184,60 9.95984618,59.6554349 9.99696976,59.199855 C10.0363071,58.7201869 9.68806075,58.2981209 9.2194182,58.257974 Z" id="Path"></path>
            </g>
        </g>
    </g>
</svg>