<?xml version="1.0" encoding="UTF-8"?>
<svg viewBox="0 0 16 16" version="1.1" xmlns="http://www.w3.org/2000/svg" xmlns:xlink="http://www.w3.org/1999/xlink">
    <!-- Generator: Sketch 53.2 (72643) - https://sketchapp.com -->
    <title>Shape</title>
    <desc>Created with Sketch.</desc>
    <g id="Page-1" stroke="none" stroke-width="1" fill="none" fill-rule="evenodd">
        <g id="excellent" transform="translate(-87.000000, -331.000000)" fill="#86D9B0">
            <g id="bloc-2" transform="translate(0.000000, 199.000000)">
                <g id="star" transform="translate(25.000000, 132.000000)">
                    <path d="M72.8928337,5.01304953 L77.5478384,5.72598543 C77.820798,5.76779048 78.0081858,6.02295766 77.9663808,6.29591727 C77.9506097,6.39889198 77.9030685,6.49436908 77.8303979,6.56901166 L74.4296831,10.0620124 C74.3191611,10.1755336 74.268983,10.3347191 74.2944272,10.4910993 L75.0924448,15.3957179 C75.136792,15.668276 74.9517905,15.9251786 74.6792323,15.9695258 C74.5684391,15.9875527 74.4548027,15.9677738 74.3566158,15.9133731 L70.242286,13.6338203 C70.091536,13.550297 69.9083983,13.550297 69.7576483,13.6338203 L65.6433185,15.9133731 C65.4017726,16.0472021 65.0974711,15.9598803 64.9636422,15.7183344 C64.9092415,15.6201475 64.8894626,15.5065111 64.9074895,15.3957179 L65.7055071,10.4910993 C65.7309513,10.3347191 65.6807732,10.1755336 65.5702512,10.0620124 L62.1695363,6.56901166 C61.9769054,6.37115328 61.9811431,6.05459915 62.1790015,5.86196823 C62.2536441,5.78929773 62.3491212,5.74175649 62.4520959,5.72598543 L67.1071006,5.01304953 C67.2720094,4.98779297 67.4134572,4.88195094 67.4842118,4.73086621 L69.5471612,0.325777485 C69.6642753,0.0756996842 69.9619431,-0.032088718 70.2120209,0.08502535 C70.3179652,0.134640168 70.4031582,0.219833214 70.4527731,0.325777485 L72.5157225,4.73086621 C72.5864771,4.88195094 72.7279249,4.98779297 72.8928337,5.01304953 Z" id="Shape"></path>
                </g>
            </g>
        </g>
    </g>
</svg>